<?xml version="1.0" encoding="UTF-8"?>
<svg width="115px" height="222px" viewBox="0 0 115 222" version="1.1" xmlns="http://www.w3.org/2000/svg" xmlns:xlink="http://www.w3.org/1999/xlink">
    <!-- Generator: Sketch 55.1 (78136) - https://sketchapp.com -->
    <title>Group 13</title>
    <desc>Created with Sketch.</desc>
    <g id="Page-1" stroke="none" stroke-width="1" fill="none" fill-rule="evenodd">
        <g id="Group-13" transform="translate(0.667193, -7.343836)">
            <path d="M4.599,146.967886 C4.891,148.103886 9.864,221.172886 9.864,221.172886 C9.864,221.172886 22.153,229.526886 45.267,228.386886 C68.381,227.245886 75.109,218.817886 75.109,218.817886 C75.109,218.817886 81.254,144.178886 80.376,144.717886 C79.498,145.256886 42.53,148.815886 42.53,148.815886 L4.599,146.967886" id="Fill-190-Copy-13" fill="#FCD783"></path>
            <path d="M75.109,218.817886 C75.109,218.817886 81.254,144.178886 80.376,144.717886 C79.891,145.016886 68.342,146.239886 58.128,147.272886 L55.59,158.348886 L54.514,227.442886 C70.225,224.922886 75.109,218.817886 75.109,218.817886" id="Fill-191-Copy-13" fill="#FCB924"></path>
            <path d="M80.434,144.857886 C80.4,144.775886 80.376,144.717886 80.376,144.717886 C79.498,145.256886 42.53,148.815886 42.53,148.815886 L4.599,146.967886 C4.656,147.192886 4.899,150.260886 5.251,155.021886 C9.598,156.722886 20.775,159.196886 37.264,159.686886 C64.016,160.479886 73.144,157.418886 80.059,153.966886 C80.371,148.971886 80.529,145.564886 80.434,144.857886" id="Fill-192-Copy-6" fill="#FCB924"></path>
            <path d="M0,137.196886 L1.024,149.723886 C1.024,149.723886 14.522,157.198886 43.887,156.624886 C69.393,156.126886 83.59,149.247886 83.59,149.247886 L83.59,137.196886 L0,137.196886" id="Fill-193-Copy-13" fill="#FCD783"></path>
            <path d="M83.59,137.196886 L60.184,137.196886 L50.909,141.768886 C50.909,141.768886 50.909,150.137886 51.149,156.298886 C72.069,154.824886 83.59,149.247886 83.59,149.247886 L83.59,137.196886" id="Fill-194-Copy-13" fill="#FCB924"></path>
            <path d="M77.035,140.600886 C81.179,139.616886 83.59,138.449886 83.59,137.196886 C83.59,133.697886 64.877,130.861886 41.795,130.861886 C18.712,130.861886 0,133.697886 0,137.196886 C0,138.591886 2.982,139.880886 8.025,140.927886 C15.495,137.993886 28.351,136.055886 42.965,136.055886 C57.028,136.055886 69.46,137.850886 77.035,140.600886" id="Fill-195-Copy-13" fill="#FCB924"></path>
            <path d="M77.035,140.600886 C69.46,137.850886 57.028,136.055886 42.965,136.055886 C28.351,136.055886 15.495,137.993886 8.025,140.927886 C15.626,142.504886 27.917,143.530886 41.795,143.530886 C56.608,143.530886 69.612,142.360886 77.035,140.600886" id="Fill-196-Copy-13" fill="#333333"></path>
            <path d="M83.59,137.196886 C83.59,134.449886 72.048,132.111886 55.915,131.233886 C50.023,133.023886 44.563,134.975886 44.442,136.065886 L44.442,136.066886 C57.894,136.188886 69.727,137.947886 77.035,140.600886 C81.179,139.616886 83.59,138.449886 83.59,137.196886" id="Fill-197-Copy-13" fill="#FDE7B4"></path>
            <path d="M78.8186492,75.7395886 C82.4466492,60.0355886 86.6816492,18.6745886 88.2886492,2.10758863 C79.9786492,0.864588629 78.6176492,10.7115886 75.4856492,15.1645886 C71.3516492,21.0425886 65.4256492,26.9675886 62.6676492,38.9135886 C58.8996492,55.2405886 58.2726492,62.9725886 59.9496492,73.6675886 C61.6276492,84.3635886 58.1416492,93.5505886 57.3146492,107.258589 C56.2756492,124.468589 58.8276492,127.524589 62.4036492,133.409589 C65.9806492,139.293589 64.3636492,143.990589 64.3636492,143.990589 L66.6026492,143.700589 C66.9336492,138.935589 67.5386492,132.497589 68.6076492,127.049589 C70.5806492,116.981589 74.2346492,95.5805886 78.8186492,75.7395886" id="Fill-232-Copy-6" fill="#D1B28B" transform="translate(72.684694, 72.995294) rotate(15.000000) translate(-72.684694, -72.995294) "></path>
            <path d="M72.1298468,137.525844 C76.4628468,134.473844 86.5678468,136.962844 94.0478468,127.607844 C104.874847,114.069844 104.103847,102.798844 102.815847,85.5768437 C101.667847,70.2158437 104.396847,70.8378437 105.227847,52.3548437 C106.057847,33.8718437 102.639847,31.4688437 99.2758468,22.9028437 C95.9128468,14.3348437 96.3288468,7.98284375 89.5118468,5.97784375 C88.9288468,5.80684375 88.3778468,5.68684375 87.8518468,5.60784375 C86.2448468,22.1748437 82.0098468,63.5358437 78.3818468,79.2398437 C73.7978468,99.0808437 70.1438468,120.481844 68.1708468,130.549844 C67.1018468,135.997844 66.4968468,142.435844 66.1658468,147.200844 L68.6858468,146.872844 C68.6858468,146.872844 67.7968468,140.577844 72.1298468,137.525844" id="Fill-233-Copy-6" fill="#BD8B4C" transform="translate(85.759832, 76.404344) rotate(15.000000) translate(-85.759832, -76.404344) "></path>
            <path d="M100.84188,11.0683456 C99.9708798,10.6723456 99.1498798,10.1903456 98.3238798,9.72234564 C98.0988798,9.96434564 97.8848798,10.2213456 97.6778798,10.4883456 C99.8938798,11.7243456 102.12288,12.8143456 104.51088,13.6403456 C104.54988,13.2503456 104.58988,12.8593456 104.62688,12.4833456 C103.34588,12.0683456 102.07288,11.6293456 100.84188,11.0683456" id="Fill-234-Copy-6" fill="#D2A66E" transform="translate(101.152380, 11.681346) rotate(15.000000) translate(-101.152380, -11.681346) "></path>
            <path d="M92.528749,15.1248478 C92.297749,15.6318478 92.069749,16.1328478 91.841749,16.6178478 C94.749749,19.1948478 97.807749,21.5088478 101.336749,23.2368478 C101.383749,22.7908478 101.429749,22.3518478 101.475749,21.9138478 C99.382749,20.4988478 97.301749,19.0578478 95.322749,17.5038478 C94.388749,16.7708478 93.482749,15.9108478 92.528749,15.1248478" id="Fill-235-Copy-6" fill="#D2A66E" transform="translate(96.658749, 19.180848) rotate(15.000000) translate(-96.658749, -19.180848) "></path>
            <path d="M83.7269032,23.6742113 C88.0979032,27.2242113 92.7609032,30.6332113 97.5559032,33.6562113 C97.6349032,32.9522113 97.7149032,32.2492113 97.7919032,31.5522113 C93.5789032,28.3162113 89.0879032,25.3032113 84.5569032,22.5622113 C84.2829032,22.9272113 84.0059032,23.2982113 83.7269032,23.6742113" id="Fill-236-Copy-6" fill="#D2A66E" transform="translate(90.759403, 28.109211) rotate(15.000000) translate(-90.759403, -28.109211) "></path>
            <path d="M76.1858894,30.5024238 C81.9438894,35.0374238 87.6128894,39.8594238 93.7458894,43.9434238 C93.8218894,43.3294238 93.8948894,42.7134238 93.9688894,42.0984238 C88.2528894,37.8974238 82.2078894,34.0764238 76.5068894,29.8734238 C76.3988894,30.0784238 76.2928894,30.2924238 76.1858894,30.5024238" id="Fill-237-Copy-6" fill="#D2A66E" transform="translate(85.077389, 36.908424) rotate(15.000000) translate(-85.077389, -36.908424) "></path>
            <path d="M70.0031794,39.4886705 C76.2911794,44.4816705 83.0721794,49.1226705 89.8661794,53.5456705 C89.9371794,53.0126705 90.0081794,52.4726705 90.0791794,51.9346705 C83.7941794,47.0396705 77.1351794,42.3826705 70.2531794,38.5086705 C70.1681794,38.8326705 70.0831794,39.1556705 70.0031794,39.4886705" id="Fill-238-Copy-6" fill="#D2A66E" transform="translate(80.041179, 46.027171) rotate(15.000000) translate(-80.041179, -46.027171) "></path>
            <path d="M65.1378012,48.5150588 C65.0848012,48.8030588 65.0338012,49.0860588 64.9818012,49.3680588 C70.0588012,55.3950588 77.8528012,60.3000588 85.5468012,63.5810588 C85.6258012,63.0810588 85.7038012,62.5810588 85.7808012,62.0690588 C83.0748012,60.6420588 80.3948012,59.1670588 77.7988012,57.5560588 C73.3688012,54.8070588 69.4918012,51.3320588 65.1378012,48.5150588" id="Fill-239-Copy-6" fill="#D2A66E" transform="translate(75.381301, 56.048059) rotate(15.000000) translate(-75.381301, -56.048059) "></path>
            <path d="M60.422238,61.3774087 C60.416238,61.6634087 60.413238,61.9464087 60.411238,62.2304087 C67.191238,65.8534087 73.636238,70.1264087 80.444238,73.7234087 C80.566238,73.1564087 80.688238,72.5664087 80.811238,71.9484087 C77.609238,70.1824087 74.319238,68.5434087 71.112238,66.8344087 C67.590238,64.9574087 64.088238,62.9844087 60.422238,61.3774087" id="Fill-240-Copy-6" fill="#D2A66E" transform="translate(70.611238, 67.550409) rotate(15.000000) translate(-70.611238, -67.550409) "></path>
            <path d="M58.7095967,73.6322633 C64.1355967,76.9632633 69.7495967,80.1842633 75.5785967,82.7562633 C75.6715967,82.3222633 75.7655967,81.8872633 75.8605967,81.4522633 C70.1735967,78.3882633 64.3125967,75.5882633 58.5755967,72.5982633 C58.6275967,72.9452633 58.6675967,73.2882633 58.7095967,73.6322633" id="Fill-241-Copy-6" fill="#D2A66E" transform="translate(67.218097, 77.677263) rotate(15.000000) translate(-67.218097, -77.677263) "></path>
            <path d="M56.0156494,83.5113774 C60.6836494,86.7843774 65.5986494,89.8503774 70.8256494,92.2173774 C70.9286494,91.7043774 71.0326494,91.1893774 71.1376494,90.6733774 C66.0446494,88.1633774 60.9676494,85.6493774 56.0886494,82.7173774 C56.0626494,82.9823774 56.0436494,83.2463774 56.0156494,83.5113774" id="Fill-242-Copy-6" fill="#D2A66E" transform="translate(63.576649, 87.467377) rotate(15.000000) translate(-63.576649, -87.467377) "></path>
            <path d="M52.5570076,91.8239324 C56.8570076,95.2729324 61.8570076,98.3089324 66.8700076,100.477932 C66.9600076,100.012932 67.0500076,99.5479324 67.1410076,99.0779324 C62.3520076,96.1979324 57.5580076,93.3229324 52.7680076,90.4419324 C52.6970076,90.8989324 52.6270076,91.3599324 52.5570076,91.8239324" id="Fill-243-Copy-6" fill="#D2A66E" transform="translate(59.849008, 95.459932) rotate(15.000000) translate(-59.849008, -95.459932) "></path>
            <path d="M49.1136891,99.0402891 C49.0896891,99.2682891 49.0696891,99.5062891 49.0456891,99.7382891 C53.7766891,102.844289 57.8376891,106.492289 62.7226891,109.184289 C62.8026891,108.750289 62.8846891,108.314289 62.9676891,107.870289 C61.2146891,106.918289 59.4796891,105.938289 57.7986891,104.863289 C54.8526891,102.977289 52.1926891,100.704289 49.1136891,99.0402891" id="Fill-244-Copy-6" fill="#D2A66E" transform="translate(56.006689, 104.112289) rotate(15.000000) translate(-56.006689, -104.112289) "></path>
            <path d="M46.3613129,107.785677 C46.3513129,108.124677 46.3463129,108.453677 46.3403129,108.779677 C49.8493129,111.973677 54.5953129,114.754677 59.1963129,116.130677 C59.2853129,115.654677 59.3763129,115.165677 59.4683129,114.668677 C57.3393129,113.756677 55.1723129,112.941677 53.1133129,111.853677 C50.7793129,110.621677 48.6033129,109.158677 46.3613129,107.785677" id="Fill-245-Copy-6" fill="#D2A66E" transform="translate(52.904313, 111.958177) rotate(15.000000) translate(-52.904313, -111.958177) "></path>
            <path d="M44.5682788,117.05034 C47.9522788,119.65534 51.6162788,122.08034 55.4642788,124.00434 C55.5362788,123.60334 55.6052788,123.19634 55.6832788,122.80334 C55.7072788,122.67634 55.7332788,122.54034 55.7592788,122.40934 C51.9422788,120.30634 48.1402788,118.22134 44.4322788,115.91034 C44.4732788,116.30334 44.5182788,116.68434 44.5682788,117.05034" id="Fill-246-Copy-6" fill="#D2A66E" transform="translate(50.095779, 119.957340) rotate(15.000000) translate(-50.095779, -119.957340) "></path>
            <circle id="Oval-Copy-38" fill="#333333" cx="30.3328072" cy="175.343836" r="4"></circle>
            <circle id="Oval-Copy-39" fill="#333333" cx="56.3328072" cy="175.343836" r="4"></circle>
            <circle id="Oval-Copy-25" stroke="#FFFFFF" fill="#FFFFFF" cx="30.3328072" cy="177.343836" r="1"></circle>
            <circle id="Oval-Copy-24" stroke="#FFFFFF" fill="#FFFFFF" cx="55.3328072" cy="177.343836" r="1"></circle>
            <path d="M30.3328072,195.825785 C35.6724061,192.31585 39.7557394,190.560883 42.5828072,190.560883 C45.409875,190.560883 49.4932083,192.31585 54.8328072,195.825785" id="Line-Copy-11" stroke="#333333" stroke-width="2" stroke-linecap="round"></path>
            <path d="M54.8374027,185.113894 C55.3442546,184.133981 55.9593035,183.394535 56.3103001,183.346261 C56.6722451,183.295732 57.36973,184.040141 57.964814,185.058402 C59.1704388,187.123348 59.9490715,190.322051 56.6232988,190.343706 C53.1680761,190.367166 53.75994,187.195082 54.8374027,185.113894" id="Fill-1267-Copy-2" fill="#96D0D4"></path>
            <polyline id="Path-2-Copy" stroke-opacity="0.503032124" stroke="#7C5E4C" stroke-linecap="round" points="7.33280719 170.343836 17.1343186 176.582876 25.2788251 182.343836 14.7146611 192.162053 27.299135 202.580102 34.6319422 208.294792 27.299135 213.23875 26.3940086 225.761273"></polyline>
        </g>
    </g>
</svg>