<?xml version="1.0" encoding="UTF-8"?>
<svg width="217px" height="349px" viewBox="0 0 217 349" version="1.1" xmlns="http://www.w3.org/2000/svg" xmlns:xlink="http://www.w3.org/1999/xlink">
    <!-- Generator: Sketch 55.1 (78136) - https://sketchapp.com -->
    <title>Group 29</title>
    <desc>Created with Sketch.</desc>
    <g id="Page-1" stroke="none" stroke-width="1" fill="none" fill-rule="evenodd">
        <g id="Group-29" transform="translate(-9.182183, -1.000000)">
            <path d="M73.4483754,267.62405 C73.7403754,268.76005 78.7133754,341.82905 78.7133754,341.82905 C78.7133754,341.82905 91.0023754,350.18305 114.116375,349.04305 C137.230375,347.90205 143.958375,339.47405 143.958375,339.47405 C143.958375,339.47405 150.103375,264.83505 149.225375,265.37405 C148.347375,265.91305 111.379375,269.47205 111.379375,269.47205 L73.4483754,267.62405" id="Fill-190-Copy-9" fill="#FCD783"></path>
            <path d="M143.958375,339.47405 C143.958375,339.47405 150.103375,264.83505 149.225375,265.37405 C148.740375,265.67305 137.191375,266.89605 126.977375,267.92905 L124.439375,279.00505 L123.363375,348.09905 C139.074375,345.57905 143.958375,339.47405 143.958375,339.47405" id="Fill-191-Copy-9" fill="#FCB924"></path>
            <path d="M149.283375,265.51405 C149.249375,265.43205 149.225375,265.37405 149.225375,265.37405 C148.347375,265.91305 111.379375,269.47205 111.379375,269.47205 L73.4483754,267.62405 C73.5053754,267.84905 73.7483754,270.91705 74.1003754,275.67805 C78.4473754,277.37905 89.6243754,279.85305 106.113375,280.34305 C132.865375,281.13605 141.993375,278.07505 148.908375,274.62305 C149.220375,269.62805 149.378375,266.22105 149.283375,265.51405" id="Fill-192-Copy" fill="#FCB924"></path>
            <path d="M68.8493754,257.85305 L69.8733754,270.38005 C69.8733754,270.38005 83.3713754,277.85505 112.736375,277.28105 C138.242375,276.78305 152.439375,269.90405 152.439375,269.90405 L152.439375,257.85305 L68.8493754,257.85305" id="Fill-193-Copy-9" fill="#FCD783"></path>
            <path d="M152.439375,257.85305 L129.033375,257.85305 L119.758375,262.42505 C119.758375,262.42505 119.758375,270.79405 119.998375,276.95505 C140.918375,275.48105 152.439375,269.90405 152.439375,269.90405 L152.439375,257.85305" id="Fill-194-Copy-9" fill="#FCB924"></path>
            <path d="M145.884375,261.25705 C150.028375,260.27305 152.439375,259.10605 152.439375,257.85305 C152.439375,254.35405 133.726375,251.51805 110.644375,251.51805 C87.5613754,251.51805 68.8493754,254.35405 68.8493754,257.85305 C68.8493754,259.24805 71.8313754,260.53705 76.8743754,261.58405 C84.3443754,258.65005 97.2003754,256.71205 111.814375,256.71205 C125.877375,256.71205 138.309375,258.50705 145.884375,261.25705" id="Fill-195-Copy-9" fill="#FCB924"></path>
            <path d="M145.884375,261.25705 C138.309375,258.50705 125.877375,256.71205 111.814375,256.71205 C97.2003754,256.71205 84.3443754,258.65005 76.8743754,261.58405 C84.4753754,263.16105 96.7663754,264.18705 110.644375,264.18705 C125.457375,264.18705 138.461375,263.01705 145.884375,261.25705" id="Fill-196-Copy-9" fill="#333333"></path>
            <path d="M152.439375,257.85305 C152.439375,255.10605 140.897375,252.76805 124.764375,251.89005 C118.872375,253.68005 113.412375,255.63205 113.291375,256.72205 L113.291375,256.72305 C126.743375,256.84505 138.576375,258.60405 145.884375,261.25705 C150.028375,260.27305 152.439375,259.10605 152.439375,257.85305" id="Fill-197-Copy-9" fill="#FDE7B4"></path>
            <path d="M90.8583754,212.87605 C90.8933754,200.17005 87.9453754,120.09805 85.2243754,97.5450503 C82.5043754,74.9910503 70.7043754,32.7270503 65.5173754,13.1530503 C63.9973754,7.42005025 62.5773754,3.58105025 61.3263754,1.00605025 C55.9773754,0.664050251 53.3103754,14.8730503 52.1143754,30.4350503 C50.8933754,46.3340503 41.9493754,50.7600503 44.1733754,67.4950503 C46.3993754,84.2310503 56.5453754,98.0360503 56.5703754,113.19205 C56.5953754,128.34805 36.9743754,167.69905 43.5183754,188.46505 C50.0623754,209.23005 72.7573754,227.03005 79.3363754,235.08605 C85.9163754,243.14105 89.4853754,261.19605 89.4853754,261.19605 C89.4853754,261.19605 90.8903754,261.68505 92.1503754,261.91605 C91.3813754,258.08805 90.4503754,253.10305 89.8463754,248.69305 C88.6643754,240.04905 90.8233754,225.58205 90.8583754,212.87605" id="Fill-198-Copy" fill="#286B59"></path>
            <path d="M94.1043754,261.62405 C94.2543754,260.49605 90.2263754,236.68105 94.8653754,229.41905 C107.134375,210.20905 107.671375,125.91205 97.9663754,78.4090503 C88.2613754,30.9070503 68.6113754,2.27805025 61.6753754,1.03805025 C61.5573754,1.01705025 61.4423754,1.01305025 61.3263754,1.00605025 C62.5773754,3.58105025 63.9973754,7.42005025 65.5173754,13.1530503 C70.7043754,32.7270503 82.5043754,74.9910503 85.2243754,97.5450503 C87.9453754,120.09805 90.8933754,200.17005 90.8583754,212.87605 C90.8233754,225.58205 88.6643754,240.04905 89.8463754,248.69305 C90.4503754,253.10305 91.3813754,258.08805 92.1503754,261.91605 C93.1383754,262.09605 94.0373754,262.11905 94.1043754,261.62405" id="Fill-199-Copy" fill="#00917A"></path>
            <path d="M68.3431826,23.438 C68.1991826,22.94 68.0551826,22.45 67.9131826,21.986 C65.1541826,21.302 62.3801826,20.642 59.6051826,20 C59.4601826,20.406 59.3201826,20.832 59.1821826,21.271 C62.0701826,22.457 65.2971826,23.235 68.3431826,23.438" id="Fill-200-Copy" fill="#0C4C3B"></path>
            <path d="M69.8191826,29.768 C69.6701826,29.209 69.5221826,28.661 69.3771826,28.119 C68.0371826,27.98 66.6961826,27.837 65.3601826,27.665 C62.1961826,27.258 58.4631826,27.068 55.3101826,26 C55.2671826,26.29 55.2231826,26.579 55.1821826,26.873 C57.3601826,27.753 59.7431826,28.166 62.0671826,28.61 C64.6271826,29.098 67.2171826,29.508 69.8191826,29.768" id="Fill-201-Copy" fill="#0C4C3B"></path>
            <path d="M72.1073754,37.8810503 C71.9763754,37.3840503 71.8463754,36.8880503 71.7173754,36.3960503 C65.0043754,36.3830503 57.7683754,36.3510503 51.6503754,34.2090503 C51.6073754,34.4630503 51.5633754,34.7150503 51.5163754,34.9620503 C57.8133754,37.5040503 65.1823754,38.1050503 72.1073754,37.8810503" id="Fill-202-Copy" fill="#0C4C3B"></path>
            <path d="M75.3513754,50.4680503 C75.1873754,49.8160503 75.0223754,49.1640503 74.8573754,48.5140503 C71.2423754,48.1180503 67.6183754,47.7950503 64.0143754,47.3340503 C61.4253754,47.0040503 58.8423754,46.6270503 56.2613754,46.2430503 C53.9383754,45.8970503 50.8253754,45.8260503 48.4483754,44.8100503 C48.3203754,45.1200503 48.1933754,45.4280503 48.0653754,45.7350503 C51.1413754,47.5070503 55.4683754,47.8090503 58.6753754,48.3750503 C64.1533754,49.3420503 69.7573754,50.1920503 75.3513754,50.4680503" id="Fill-203-Copy" fill="#0C4C3B"></path>
            <path d="M78.6073754,63.7420503 C78.4453754,63.0570503 78.2813754,62.3710503 78.1163754,61.6840503 C72.8063754,61.5110503 67.4883754,61.5130503 62.1873754,60.9920503 C55.9773754,60.3800503 50.0953754,59.0110503 44.2643754,57.1260503 C44.1863754,57.5830503 44.1183754,58.0520503 44.0593754,58.5280503 C54.3793754,63.2340503 67.1523754,64.2690503 78.6073754,63.7420503" id="Fill-204-Copy" fill="#0C4C3B"></path>
            <path d="M81.9943754,78.8870503 C81.8513754,78.1970503 81.7053754,77.5030503 81.5563754,76.8020503 C69.5033754,74.6130503 57.1363754,74.0610503 45.0213754,72.2470503 C45.1453754,72.8070503 45.2773754,73.3650503 45.4153754,73.9190503 C50.7203754,75.4440503 56.9073754,75.5930503 62.0743754,76.3140503 C68.6663754,77.2340503 75.3333754,78.3510503 81.9943754,78.8870503" id="Fill-205-Copy" fill="#0C4C3B"></path>
            <path d="M67.4823754,90.0370503 C72.8963754,90.3090503 78.6263754,90.5890503 84.1183754,90.0510503 C83.9933754,89.3090503 83.8643754,88.5570503 83.7263754,87.7910503 C78.3843754,87.8160503 73.0333754,88.1730503 67.6793754,87.9640503 C61.6323754,87.7270503 55.6193754,87.0210503 49.5833754,86.6910503 C49.7293754,87.0760503 49.8743754,87.4600503 50.0213754,87.8430503 C55.7193754,89.2040503 61.6433754,89.7430503 67.4823754,90.0370503" id="Fill-206-Copy" fill="#0C4C3B"></path>
            <path d="M54.7823754,101.46305 C54.9923754,102.22305 55.1903754,102.98405 55.3693754,103.74605 C65.0343754,106.78105 76.6173754,106.78705 85.9093754,104.32605 C85.8533754,103.69205 85.7973754,103.07005 85.7423754,102.47405 C79.4323754,103.34505 73.1883754,104.05105 66.7793754,103.57905 C62.6593754,103.27605 58.7233754,102.40005 54.7823754,101.46305" id="Fill-207-Copy" fill="#0C4C3B"></path>
            <path d="M56.5173754,114.64905 C56.4843754,115.14005 56.4323754,115.65405 56.3673754,116.18405 C60.5903754,117.69005 65.4393754,117.85405 69.8313754,117.93405 C75.4173754,118.03505 81.2673754,117.69705 86.8263754,116.50405 C86.7763754,115.74605 86.7253754,114.99905 86.6743754,114.26505 C76.8213754,115.81405 66.0123754,117.41705 56.5173754,114.64905" id="Fill-208-Copy" fill="#0C4C3B"></path>
            <path d="M55.2503754,122.18405 C55.1263754,122.71305 54.9973754,123.24905 54.8603754,123.79705 C60.5253754,125.46005 66.4313754,126.59405 72.1773754,127.51205 C77.0213754,128.28605 82.5703754,128.98105 87.5253754,127.83405 C87.4753754,126.97205 87.4253754,126.11605 87.3753754,125.27105 C76.5303754,126.94605 65.9923754,124.28305 55.2503754,122.18405" id="Fill-209-Copy" fill="#0C4C3B"></path>
            <path d="M52.5633754,132.07605 C52.3993754,132.63105 52.2343754,133.18805 52.0653754,133.75305 C59.9573754,133.96705 67.4333754,134.59105 75.2833754,136.92005 C79.6113754,138.20405 83.8813754,139.69605 88.2243754,140.84105 C88.1803754,139.97405 88.1363754,139.11105 88.0913754,138.25205 C76.3723754,134.96805 64.6283754,130.85505 52.5633754,132.07605" id="Fill-210-Copy" fill="#0C4C3B"></path>
            <path d="M69.3613754,147.06005 C62.8493754,145.79205 56.1613754,143.45105 49.4543754,142.40805 C49.2583754,143.06305 49.0623754,143.72105 48.8663754,144.38305 C55.9933754,146.55305 63.3783754,148.42205 70.5743754,149.83805 C76.3303754,150.97005 82.7603754,151.68005 88.6973754,150.56105 C88.6543754,149.65105 88.6113754,148.74205 88.5683754,147.83505 C82.1703754,148.52505 75.9433754,148.34305 69.3613754,147.06005" id="Fill-211-Copy" fill="#0C4C3B"></path>
            <path d="M46.5153754,152.64105 C46.3923754,153.09905 46.2663754,153.55705 46.1463754,154.01505 C56.5543754,155.41805 65.7993754,160.16405 76.1723754,162.30905 C80.3713754,163.17805 84.9823754,163.43405 89.2343754,162.57305 C89.2003754,161.79205 89.1663754,161.00905 89.1323754,160.22405 C75.4043754,163.03305 60.9083754,152.70605 46.5153754,152.64105" id="Fill-212-Copy" fill="#0C4C3B"></path>
            <path d="M89.8223754,177.08705 C89.7833754,176.08705 89.7433754,175.07605 89.7033754,174.05705 C89.4503754,173.99305 89.1963754,173.92805 88.9403754,173.86005 C84.1083754,172.58705 79.2643754,171.37505 74.3693754,170.34805 C64.3833754,168.25305 53.7103754,166.25305 43.4033754,166.263013 C43.3393754,166.61905 43.2723754,166.97705 43.2133754,167.33205 C55.3393754,169.75205 67.6103754,171.15905 79.6603754,174.13405 C82.4493754,174.82205 86.0833754,176.16105 89.8223754,177.08705" id="Fill-213-Copy" fill="#0C4C3B"></path>
            <path d="M90.2913754,190.12905 C90.2633754,189.30605 90.2353754,188.47105 90.2053754,187.62205 C82.3103754,187.82205 74.4333754,188.37105 66.5283754,187.44805 C58.0073754,186.45405 50.3713754,182.74005 42.2473754,180.70505 C42.2783754,181.34105 42.3193754,181.97005 42.3783754,182.58705 C50.0613754,185.90705 57.9113754,188.87305 66.2873754,189.96105 C74.1193754,190.97705 82.3273754,191.01405 90.2913754,190.12905" id="Fill-214-Copy" fill="#0C4C3B"></path>
            <path d="M90.7763754,206.87605 C90.7603754,206.14005 90.7423754,205.36005 90.7213754,204.53705 C84.3413754,205.24305 77.1243754,203.47405 71.2813754,202.56005 C66.7283754,201.84705 62.1893754,201.05305 57.6633754,200.18805 C54.4303754,199.57005 50.9663754,199.10105 47.7373754,198.11605 C48.0623754,198.70505 48.3973754,199.29105 48.7423754,199.87305 C50.4023754,200.41605 52.1353754,200.81905 53.8673754,201.24405 C59.5553754,202.63805 65.2873754,203.84105 71.0663754,204.81405 C76.6713754,205.75905 84.3253754,207.80405 90.7763754,206.87605" id="Fill-215-Copy" fill="#0C4C3B"></path>
            <path d="M90.5643754,221.76905 C90.6113754,220.92205 90.6533754,220.07505 90.6903754,219.22905 C85.5513754,218.45705 80.6083754,216.66005 75.4943754,214.85905 C70.2653754,213.01705 63.2493754,210.50805 57.5283754,212.08705 C57.9883754,212.63705 58.4513754,213.18105 58.9153754,213.72005 C62.1793754,213.85305 65.3023754,214.01005 68.6623754,214.95405 C72.9033754,216.14605 76.9223754,217.94105 81.0713754,219.38705 C84.1443754,220.46005 87.3503754,221.39505 90.5643754,221.76905" id="Fill-216-Copy" fill="#0C4C3B"></path>
            <path d="M89.7273754,235.19305 C86.9403754,233.87705 84.2653754,232.34505 81.5153754,230.95305 C78.2983754,229.32305 74.9723754,227.73405 71.4763754,226.91805 C72.6333754,228.06405 73.7253754,229.14505 74.7323754,230.15705 C78.6053754,231.89005 82.3033754,233.95905 86.2113754,236.05205 C87.2993754,236.63505 88.4353754,237.22005 89.6033754,237.77305 C89.6383754,236.92805 89.6793754,236.06905 89.7273754,235.19305" id="Fill-217-Copy" fill="#0C4C3B"></path>
            <path d="M66.6181878,216.463319 C66.6531878,203.757319 63.7051878,123.685319 60.9841878,101.132319 C58.2641878,78.5783189 46.4641878,36.3143189 41.2771878,16.7403189 C39.7571878,11.0073189 38.3371878,7.1683189 37.0861878,4.5933189 C31.7371878,4.2513189 29.0701878,18.4603189 27.8741878,34.0223189 C26.6531878,49.9213189 17.7091878,54.3473189 19.9331878,71.0823189 C22.1591878,87.8183189 32.3051878,101.623319 32.3301878,116.779319 C32.3551878,131.935319 12.7341878,171.286319 19.2781878,192.052319 C25.8221878,212.817319 48.5171878,230.617319 55.0961878,238.673319 C61.6761878,246.728319 65.2451878,264.783319 65.2451878,264.783319 C65.2451878,264.783319 66.6501878,265.272319 67.9101878,265.503319 C67.1411878,261.675319 66.2101878,256.690319 65.6061878,252.280319 C64.4241878,243.636319 66.5831878,229.169319 66.6181878,216.463319" id="Fill-198-Copy-2" fill="#286B59" transform="translate(42.926091, 135.045294) rotate(-8.000000) translate(-42.926091, -135.045294) "></path>
            <path d="M69.7185069,263.00437 C69.8685069,261.87637 65.8405069,238.06137 70.4795069,230.79937 C82.7485069,211.58937 83.2855069,127.29237 73.5805069,79.7893704 C63.8755069,32.2873704 44.2255069,3.65837039 37.2895069,2.41837039 C37.1715069,2.39737039 37.0565069,2.39337039 36.9405069,2.38637039 C38.1915069,4.96137039 39.6115069,8.80037039 41.1315069,14.5333704 C46.3185069,34.1073704 58.1185069,76.3713704 60.8385069,98.9253704 C63.5595069,121.47837 66.5075069,201.55037 66.4725069,214.25637 C66.4375069,226.96237 64.2785069,241.42937 65.4605069,250.07337 C66.0645069,254.48337 66.9955069,259.46837 67.7645069,263.29637 C68.7525069,263.47637 69.6515069,263.49937 69.7185069,263.00437" id="Fill-199-Copy-2" fill="#00917A" transform="translate(58.633668, 132.900152) rotate(-8.000000) translate(-58.633668, -132.900152) "></path>
            <path d="M28.8633981,28.5669304 C28.7193981,28.0689304 28.5753981,27.5789304 28.4333981,27.1149304 C25.6743981,26.4309304 22.9003981,25.7709304 20.1253981,25.1289304 C19.9803981,25.5349304 19.8403981,25.9609304 19.7023981,26.3999304 C22.5903981,27.5859304 25.8173981,28.3639304 28.8633981,28.5669304" id="Fill-200-Copy-2" fill="#0C4C3B" transform="translate(24.282898, 26.847930) rotate(-8.000000) translate(-24.282898, -26.847930) "></path>
            <path d="M31.209682,35.0125695 C31.060682,34.4535695 30.912682,33.9055695 30.767682,33.3635695 C29.427682,33.2245695 28.086682,33.0815695 26.750682,32.9095695 C23.586682,32.5025695 19.853682,32.3125695 16.700682,31.2445695 C16.657682,31.5345695 16.613682,31.8235695 16.572682,32.1175695 C18.750682,32.9975695 21.133682,33.4105695 23.457682,33.8545695 C26.017682,34.3425695 28.607682,34.7525695 31.209682,35.0125695" id="Fill-201-Copy-2" fill="#0C4C3B" transform="translate(23.891182, 33.128569) rotate(-8.000000) translate(-23.891182, -33.128569) "></path>
            <path d="M34.6433795,43.1418504 C34.5123795,42.6448504 34.3823795,42.1488504 34.2533795,41.6568504 C27.5403795,41.6438504 20.3043795,41.6118504 14.1863795,39.4698504 C14.1433795,39.7238504 14.0993795,39.9758504 14.0523795,40.2228504 C20.3493795,42.7648504 27.7183795,43.3658504 34.6433795,43.1418504" id="Fill-202-Copy-2" fill="#0C4C3B" transform="translate(24.347879, 41.327425) rotate(-8.000000) translate(-24.347879, -41.327425) "></path>
            <path d="M39.4989571,55.6306328 C39.3349571,54.9786328 39.1699571,54.3266328 39.0049571,53.6766328 C35.3899571,53.2806328 31.7659571,52.9576328 28.1619571,52.4966328 C25.5729571,52.1666328 22.9899571,51.7896328 20.4089571,51.4056328 C18.0859571,51.0596328 14.9729571,50.9886328 12.5959571,49.9726328 C12.4679571,50.2826328 12.3409571,50.5906328 12.2129571,50.8976328 C15.2889571,52.6696328 19.6159571,52.9716328 22.8229571,53.5376328 C28.3009571,54.5046328 33.9049571,55.3546328 39.4989571,55.6306328" id="Fill-203-Copy-2" fill="#0C4C3B" transform="translate(25.855957, 52.801633) rotate(-8.000000) translate(-25.855957, -52.801633) "></path>
            <path d="M44.548,68.8316961 C44.386,68.1466961 44.222,67.4606961 44.057,66.7736961 C38.747,66.6006961 33.429,66.6026961 28.128,66.0816961 C21.918,65.4696961 16.036,64.1006961 10.205,62.2156961 C10.127,62.6726961 10.059,63.1416961 10,63.6176961 C20.32,68.3236961 33.093,69.3586961 44.548,68.8316961" id="Fill-204-Copy-2" fill="#0C4C3B" transform="translate(27.274000, 65.586019) rotate(-8.000000) translate(-27.274000, -65.586019) "></path>
            <path d="M50.0112708,83.5273974 C49.8682708,82.8373974 49.7222708,82.1433974 49.5732708,81.4423974 C37.5202708,79.2533974 25.1532708,78.7013974 13.0382708,76.8873974 C13.1622708,77.4473974 13.2942708,78.0053974 13.4322708,78.5593974 C18.7372708,80.0843974 24.9242708,80.2333974 30.0912708,80.9543974 C36.6832708,81.8743974 43.3502708,82.9913974 50.0112708,83.5273974" id="Fill-205-Copy-2" fill="#0C4C3B" transform="translate(31.524771, 80.207397) rotate(-8.000000) translate(-31.524771, -80.207397) "></path>
            <path d="M37.2700175,94.0860441 C42.6840175,94.3580441 48.4140175,94.6380441 53.9060175,94.1000441 C53.7810175,93.3580441 53.6520175,92.6060441 53.5140175,91.8400441 C48.1720175,91.8650441 42.8210175,92.2220441 37.4670175,92.0130441 C31.4200175,91.7760441 25.4070175,91.0700441 19.3710175,90.7400441 C19.5170175,91.1250441 19.6620175,91.5090441 19.8090175,91.8920441 C25.5070175,93.2530441 31.4310175,93.7920441 37.2700175,94.0860441" id="Fill-206-Copy-2" fill="#0C4C3B" transform="translate(36.638517, 92.573149) rotate(-8.000000) translate(-36.638517, -92.573149) "></path>
            <path d="M26.6596229,104.877136 C26.8696229,105.637136 27.0676229,106.398136 27.2466229,107.160136 C36.9116229,110.195136 48.4946229,110.201136 57.7866229,107.740136 C57.7306229,107.106136 57.6746229,106.484136 57.6196229,105.888136 C51.3096229,106.759136 45.0656229,107.465136 38.6566229,106.993136 C34.5366229,106.690136 30.6006229,105.814136 26.6596229,104.877136" id="Fill-207-Copy-2" fill="#0C4C3B" transform="translate(42.223123, 107.197070) rotate(-8.000000) translate(-42.223123, -107.197070) "></path>
            <path d="M30.0977549,117.769085 C30.0647549,118.260085 30.0127549,118.774085 29.9477549,119.304085 C34.1707549,120.810085 39.0197549,120.974085 43.4117549,121.054085 C48.9977549,121.155085 54.8477549,120.817085 60.4067549,119.624085 C60.3567549,118.866085 60.3057549,118.119085 60.2547549,117.385085 C50.4017549,118.934085 39.5927549,120.537085 30.0977549,117.769085" id="Fill-208-Copy-2" fill="#0C4C3B" transform="translate(45.177255, 119.228005) rotate(-8.000000) translate(-45.177255, -119.228005) "></path>
            <path d="M30.1156724,125.270735 C29.9916724,125.799735 29.8626724,126.335735 29.7256724,126.883735 C35.3906724,128.546735 41.2966724,129.680735 47.0426724,130.598735 C51.8866724,131.372735 57.4356724,132.067735 62.3906724,130.920735 C62.3406724,130.058735 62.2906724,129.202735 62.2406724,128.357735 C51.3956724,130.032735 40.8576724,127.369735 30.1156724,125.270735" id="Fill-209-Copy-2" fill="#0C4C3B" transform="translate(46.058172, 128.398919) rotate(-8.000000) translate(-46.058172, -128.398919) "></path>
            <path d="M28.9748351,135.201184 C28.8108351,135.756184 28.6458351,136.313184 28.4768351,136.878184 C36.3688351,137.092184 43.8448351,137.716184 51.6948351,140.045184 C56.0228351,141.329184 60.2928351,142.821184 64.6358351,143.966184 C64.5918351,143.099184 64.5478351,142.236184 64.5028351,141.377184 C52.7838351,138.093184 41.0398351,133.980184 28.9748351,135.201184" id="Fill-210-Copy-2" fill="#0C4C3B" transform="translate(46.556335, 139.473722) rotate(-8.000000) translate(-46.556335, -139.473722) "></path>
            <path d="M47.2359432,150.273494 C40.7239432,149.005494 34.0359432,146.664494 27.3289432,145.621494 C27.1329432,146.276494 26.9369432,146.934494 26.7409432,147.596494 C33.8679432,149.766494 41.2529432,151.635494 48.4489432,153.051494 C54.2049432,154.183494 60.6349432,154.893494 66.5719432,153.774494 C66.5289432,152.864494 66.4859432,151.955494 66.4429432,151.048494 C60.0449432,151.738494 53.8179432,151.556494 47.2359432,150.273494" id="Fill-211-Copy-2" fill="#0C4C3B" transform="translate(46.656443, 149.979587) rotate(-8.000000) translate(-46.656443, -149.979587) "></path>
            <path d="M25.9462923,155.898313 C25.8232923,156.356313 25.6972923,156.814313 25.5772923,157.272313 C35.9852923,158.675313 45.2302923,163.421313 55.6032923,165.566313 C59.8022923,166.435313 64.4132923,166.691313 68.6652923,165.830313 C68.6312923,165.049313 68.5972923,164.266313 68.5632923,163.481313 C54.8352923,166.290313 40.3392923,155.963313 25.9462923,155.898313" id="Fill-212-Copy-2" fill="#0C4C3B" transform="translate(47.121292, 161.129912) rotate(-8.000000) translate(-47.121292, -161.129912) "></path>
            <path d="M71.1856235,180.37317 C71.1466235,179.37317 71.1066235,178.36217 71.0666235,177.34317 C70.8136235,177.27917 70.5596235,177.21417 70.3036235,177.14617 C65.4716235,175.87317 60.6276235,174.66117 55.7326235,173.63417 C45.7466235,171.53917 35.0736235,169.53917 24.7666235,169.549133 C24.7026235,169.90517 24.6356235,170.26317 24.5766235,170.61817 C36.7026235,173.03817 48.9736235,174.44517 61.0236235,177.42017 C63.8126235,178.10817 67.4466235,179.44717 71.1856235,180.37317" id="Fill-213-Copy-2" fill="#0C4C3B" transform="translate(47.881124, 174.961151) rotate(-8.000000) translate(-47.881124, -174.961151) "></path>
            <path d="M73.6134668,193.312948 C73.5854668,192.489948 73.5574668,191.654948 73.5274668,190.805948 C65.6324668,191.005948 57.7554668,191.554948 49.8504668,190.631948 C41.3294668,189.637948 33.6934668,185.923948 25.5694668,183.888948 C25.6004668,184.524948 25.6414668,185.153948 25.7004668,185.770948 C33.3834668,189.090948 41.2334668,192.056948 49.6094668,193.144948 C57.4414668,194.160948 65.6494668,194.197948 73.6134668,193.312948" id="Fill-214-Copy-2" fill="#0C4C3B" transform="translate(49.591467, 188.916422) rotate(-8.000000) translate(-49.591467, -188.916422) "></path>
            <path d="M76.4188423,209.479879 C76.4028423,208.743879 76.3848423,207.963879 76.3638423,207.140879 C69.9838423,207.846879 62.7668423,206.077879 56.9238423,205.163879 C52.3708423,204.450879 47.8318423,203.656879 43.3058423,202.791879 C40.0728423,202.173879 36.6088423,201.704879 33.3798423,200.719879 C33.7048423,201.308879 34.0398423,201.894879 34.3848423,202.476879 C36.0448423,203.019879 37.7778423,203.422879 39.5098423,203.847879 C45.1978423,205.241879 50.9298423,206.444879 56.7088423,207.417879 C62.3138423,208.362879 69.9678423,210.407879 76.4188423,209.479879" id="Fill-215-Copy-2" fill="#0C4C3B" transform="translate(54.899342, 205.217846) rotate(-8.000000) translate(-54.899342, -205.217846) "></path>
            <path d="M78.1170075,223.560667 C78.1640075,222.713667 78.2060075,221.866667 78.2430075,221.020667 C73.1040075,220.248667 68.1610075,218.451667 63.0470075,216.650667 C57.8180075,214.808667 50.8020075,212.299667 45.0810075,213.878667 C45.5410075,214.428667 46.0040075,214.972667 46.4680075,215.511667 C49.7320075,215.644667 52.8550075,215.801667 56.2150075,216.745667 C60.4560075,217.937667 64.4750075,219.732667 68.6240075,221.178667 C71.6970075,222.251667 74.9030075,223.186667 78.1170075,223.560667" id="Fill-216-Copy-2" fill="#0C4C3B" transform="translate(61.662007, 218.470057) rotate(-8.000000) translate(-61.662007, -218.470057) "></path>
            <path d="M79.3972632,235.928615 C76.6102632,234.612615 73.9352632,233.080615 71.1852632,231.688615 C67.9682632,230.058615 64.6422632,228.469615 61.1462632,227.653615 C62.3032632,228.799615 63.3952632,229.880615 64.4022632,230.892615 C68.2752632,232.625615 71.9732632,234.694615 75.8812632,236.787615 C76.9692632,237.370615 78.1052632,237.955615 79.2732632,238.508615 C79.3082632,237.663615 79.3492632,236.804615 79.3972632,235.928615" id="Fill-217-Copy-2" fill="#0C4C3B" transform="translate(70.271763, 233.081115) rotate(-8.000000) translate(-70.271763, -233.081115) "></path>
            <path d="M107.796375,151.135569 C108.367375,132.414095 104.470375,74.0157914 103.303375,57.1230503 C94.0423754,58.5816005 87.0453754,69.176987 86.8713754,82.6690031 C86.6653754,98.7104968 81.7973754,111.903126 76.5693754,121.122699 C71.3393754,130.342272 67.8073754,160.279229 76.5753754,171.782157 C85.3413754,183.28338 77.3553754,206.039323 76.9513754,216.344705 C76.5473754,226.650088 93.3503754,242.508196 97.6623754,248.060923 C101.976375,253.614502 102.640375,261.12305 102.640375,261.12305 L105.043375,261.001931 C105.562375,251.987067 106.359375,236.764408 106.413375,227.390451 C106.496375,213.413958 107.128375,173.111059 107.796375,151.135569" id="Fill-218-Copy" fill="#21594A"></path>
            <path d="M113.628375,244.167604 C121.127375,237.271508 144.612375,236.666063 138.344375,195.037925 C132.076375,153.41064 141.604375,136.893947 138.005375,125.755476 C134.408375,114.617005 125.908375,92.9881444 121.540375,79.5728615 C117.173375,66.1584313 119.559375,59.975224 107.764375,57.3453783 C105.883375,56.925831 104.053375,56.8780776 102.303375,57.1535122 C103.470375,74.0419992 107.367375,132.425597 106.796375,151.142355 C106.128375,173.112312 105.496375,213.405061 105.413375,227.378035 C105.359375,236.749632 104.562375,251.968456 104.043375,260.98105 L106.021375,260.88128 C106.021375,260.88128 106.128375,251.064554 113.628375,244.167604" id="Fill-219-Copy" fill="#286B59"></path>
            <path d="M104.478375,75.1230503 C104.430375,74.3657129 104.382375,73.6256862 104.335375,72.8951802 C102.746375,71.910209 101.183375,70.8958097 99.6753754,69.8078406 C97.2473754,68.0568767 95.0473754,66.0090366 92.7193754,64.1230503 C92.3523754,64.6120738 91.9973754,65.1210045 91.6593754,65.6524389 C93.7503754,67.6621957 96.2433754,69.4720156 98.4983754,71.1147884 C100.417375,72.5117512 102.405375,73.8697652 104.478375,75.1230503" id="Fill-220-Copy" fill="#0C4C3B"></path>
            <path d="M105.316375,88.5478016 C102.992375,87.4048182 100.680375,86.2441552 98.4323754,84.9880226 C94.5733754,82.8311165 90.9303754,80.4320005 87.2033754,78.1230503 C87.1593754,78.4678016 87.1173754,78.814321 87.0813754,79.1634922 C92.3673754,83.4720005 98.7653754,87.2854812 105.408375,90.1230503 C105.377375,89.5953154 105.347375,89.0711165 105.316375,88.5478016" id="Fill-221-Copy" fill="#0C4C3B"></path>
            <path d="M106.292375,105.296058 C103.479375,104.119704 100.753375,102.795872 98.1233754,101.209182 C93.9363754,98.6838385 90.0613754,95.8340429 86.0503754,93.1230503 C86.0023754,93.4587796 85.9633754,93.799714 85.9123754,94.1319733 C91.6713754,99.1366827 98.6823754,104.233349 106.389375,107.12305 C106.357375,106.51492 106.325375,105.905055 106.292375,105.296058" id="Fill-222-Copy" fill="#0C4C3B"></path>
            <path d="M107.099375,121.12305 C107.075375,120.57685 107.050375,120.028023 107.026375,119.476571 C102.617375,117.41869 98.2133754,115.394947 94.0853754,112.899406 C90.2503754,110.581555 86.8873754,107.659732 83.2463754,105.12305 C83.0633754,105.731399 82.8763754,106.334495 82.6833754,106.927088 C85.6193754,109.56268 89.2873754,111.849895 92.4863754,113.830748 C97.0083754,116.631776 101.893375,119.274371 107.099375,121.12305" id="Fill-223-Copy" fill="#0C4C3B"></path>
            <path d="M107.672375,136.12305 C107.659375,135.659758 107.645375,135.192135 107.630375,134.718451 C101.627375,132.130074 95.6223754,129.727014 90.0153754,126.485698 C85.6783754,123.978722 81.8453754,121.052618 77.9853754,118.12305 C77.7663754,118.554302 77.5473754,118.981224 77.3263754,119.397754 C80.7243754,122.349838 84.6403754,124.963327 88.4953754,127.313563 C94.2843754,130.843247 100.811375,134.225716 107.672375,136.12305" id="Fill-224-Copy" fill="#0C4C3B"></path>
            <path d="M107.725375,153.343114 C102.321375,150.998869 96.9163754,148.663071 91.7083754,146.009639 C85.0593754,142.6221 78.7683754,138.839207 72.4013754,135.12305 C72.3503754,135.426324 72.3003754,135.729597 72.2533754,136.037095 C82.4263754,143.709323 94.9053754,150.484402 107.674375,155.12305 C107.691375,154.518193 107.707375,153.927697 107.725375,153.343114" id="Fill-225-Copy" fill="#0C4C3B"></path>
            <path d="M107.398375,166.369524 C94.1053754,163.120038 82.6063754,156.621932 71.2433754,149.12305 C71.2443754,149.503761 71.2523754,149.881004 71.2593754,150.259113 C81.7343754,157.43452 93.9503754,165.171889 107.359375,168.12305 C107.371375,167.533338 107.385375,166.951431 107.398375,166.369524" id="Fill-226-Copy" fill="#0C4C3B"></path>
            <path d="M107.054375,183.271376 C102.184375,182.142787 97.4563754,180.657141 92.8933754,178.574007 C86.1313754,175.48878 79.9983754,171.453493 74.2183754,167.12305 C74.4273754,167.644282 74.6493754,168.147572 74.8823754,168.633816 C83.4203754,176.275562 94.8263754,183.013002 107.021375,185.12305 C107.032375,184.504928 107.043375,183.8886 107.054375,183.271376" id="Fill-227-Copy" fill="#0C4C3B"></path>
            <path d="M106.765375,199.231451 C103.191375,198.51569 99.6543754,197.70523 96.1773754,196.608307 C90.6343754,194.861123 85.6523754,192.494454 80.6003754,190.12305 C80.5763754,190.592596 80.5453754,191.064509 80.5093754,191.537212 C87.6863754,196.145864 97.3363754,199.597618 106.733375,201.12305 C106.743375,200.496463 106.754375,199.866719 106.765375,199.231451" id="Fill-228-Copy" fill="#0C4C3B"></path>
            <path d="M106.527375,216.12305 C106.534375,215.538222 106.541375,214.944217 106.549375,214.336029 C103.014375,213.278166 99.4893754,212.20028 96.0653754,210.915494 C92.3583754,209.52392 88.7423754,207.959651 85.3603754,206.095877 C83.1773754,204.892849 81.2013754,203.46123 79.1483754,202.12305 C79.0473754,202.71205 78.9453754,203.295209 78.8413754,203.871695 C82.8403754,207.263864 88.5853754,209.786717 93.3903754,211.718068 C97.6303754,213.422496 102.028375,214.899166 106.527375,216.12305" id="Fill-229-Copy" fill="#0C4C3B"></path>
            <path d="M106.360375,231.12305 C106.374375,230.441264 106.386375,229.77958 106.396375,229.137998 C102.908375,228.303773 99.4423754,227.410081 96.0343754,226.31537 C89.2043754,224.120924 83.0233754,221.41807 77.0263754,218.12305 C77.1133754,218.868492 77.2713754,219.634873 77.5023754,220.419681 C81.7613754,223.598277 88.4403754,225.556527 93.1773754,227.213251 C97.4203754,228.697433 101.841375,230.075244 106.360375,231.12305" id="Fill-230-Copy" fill="#0C4C3B"></path>
            <path d="M86.7393754,235.12305 C87.2373754,235.74779 87.7363754,236.365531 88.2353754,236.971896 C93.9223754,239.336109 99.9063754,241.417702 105.948375,243.12305 C105.974375,242.49131 106.000375,241.862195 106.026375,241.232205 C99.6123754,239.158487 93.1743754,237.122394 86.7393754,235.12305" id="Fill-231-Copy" fill="#0C4C3B"></path>
            <path d="M139.3083,137.926976 C143.133582,117.028551 148.923535,50.8308541 150.55541,31.6749376 C140.287403,31.6656917 130.903044,42.3074475 128.403195,57.4105243 C125.431921,75.367664 117.90562,89.3009839 110.670603,98.71377 C103.433423,108.126201 94.4834921,141.07898 101.997469,155.539532 C109.509575,169.997815 96.9718614,194.104357 94.7691838,205.592126 C92.5665062,217.079895 108.026179,237.853147 111.739332,244.847707 C115.454502,251.843579 114.886326,260.383881 114.886326,260.383881 L117.506528,260.674938 C119.612499,250.655173 123.082796,233.721518 124.747277,223.216347 C127.231694,207.553665 134.820568,162.458199 139.3083,137.926976" id="Fill-218-Copy-2" fill="#21594A"></path>
            <path d="M129.55979,243.292479 C138.681587,236.894483 163.71875,240.384923 164.064086,192.615029 C164.409278,144.846092 177.303234,128.025427 175.355081,114.902434 C173.409052,101.779797 168.021355,76.0290585 165.639594,60.2176821 C163.258751,44.407439 166.831905,37.9008023 154.750738,32.8594129 C152.824128,32.0552675 150.889144,31.6749376 148.984752,31.6749376 C147.383758,50.810876 141.703304,116.939548 137.949525,137.816103 C133.545679,162.321652 126.098791,207.369951 123.660891,223.016256 C122.027575,233.510443 118.622071,250.426362 116.55541,260.435629 L118.672342,260.674938 C118.672342,260.674938 120.436787,249.691254 129.55979,243.292479" id="Fill-219-Copy-2" fill="#286B59"></path>
            <path d="M148.336974,51.6749376 C148.411865,50.8423464 148.483902,50.0285966 148.55541,49.2253822 C147.063854,47.8793689 145.604211,46.5058073 144.213945,45.0616508 C141.975381,42.7372635 140.023076,40.1290495 137.910859,37.6749376 C137.448242,38.1439426 136.994834,38.6366841 136.55541,39.1568502 C138.400539,41.704822 140.697056,44.104476 142.773386,46.28128 C144.540509,48.1326107 146.385872,49.9534431 148.336974,51.6749376" id="Fill-220-Copy-2" fill="#0C4C3B"></path>
            <path d="M146.55541,66.8590245 C144.380284,65.133062 142.22018,63.3890766 140.140384,61.5476228 C136.570223,58.3858497 133.258241,54.9864975 129.846504,51.6749376 C129.746421,52.0607571 129.648084,52.4489578 129.55541,52.8412731 C134.228091,58.7187909 140.109039,64.2320524 146.395552,68.6749376 C146.448926,68.0665438 146.502747,67.4623698 146.55541,66.8590245" id="Fill-221-Copy-2" fill="#0C4C3B"></path>
            <path d="M145.55541,85.6423042 C142.732807,83.8529066 140.028794,81.9160021 137.472678,79.7058671 C133.403187,76.1880603 129.724187,72.3668122 125.87542,68.6749376 C125.766699,69.0369533 125.666764,69.4062844 125.55541,69.7639474 C130.892171,76.2918827 137.558666,83.1400496 145.348695,87.6749376 C145.417811,86.9984085 145.487222,86.3199651 145.55541,85.6423042" id="Fill-222-Copy-2" fill="#0C4C3B"></path>
            <path d="M143.353819,103.674938 C143.420928,103.063143 143.487409,102.448251 143.55541,101.830615 C139.171963,98.7647577 134.788079,95.7377545 130.780723,92.2345718 C127.057708,88.9806634 123.944115,85.1380833 120.466581,81.6749376 C120.166677,82.3193933 119.863371,82.9573023 119.55541,83.5824702 C122.25926,87.0314338 125.808198,90.2218421 128.905725,92.9888401 C133.284123,96.901246 138.079166,100.701372 143.353819,103.674938" id="Fill-223-Copy-2" fill="#0C4C3B"></path>
            <path d="M141.361203,120.674938 C141.426179,120.16248 141.490816,119.64508 141.55541,119.12083 C135.53652,115.223415 129.483892,111.529726 124.002443,106.982346 C119.762526,103.46515 116.136421,99.5743058 112.481851,95.6749376 C112.172673,96.1116462 111.864232,96.5435866 111.55541,96.9637347 C114.708967,100.807317 118.477674,104.368379 122.225607,107.628899 C127.853763,112.525581 134.301202,117.388866 141.361203,120.674938" id="Fill-224-Copy-2" fill="#0C4C3B"></path>
            <path d="M138.55541,140.66671 C133.173821,137.03965 127.789731,133.421985 122.670094,129.479676 C116.133895,124.44665 110.047471,119.029795 103.868476,113.674938 C103.762577,114.009513 103.657747,114.344268 103.55541,114.684349 C113.134231,125.206252 125.330855,135.125282 138.199417,142.674938 C138.320037,141.992443 138.437155,141.326046 138.55541,140.66671" id="Fill-225-Copy-2" fill="#0C4C3B"></path>
            <path d="M135.55541,154.695757 C122.239639,148.630398 111.329493,139.207247 100.72624,128.674938 C100.664447,129.106339 100.610521,129.535068 100.55541,129.964599 C110.286703,139.971211 121.739471,150.926675 135.225358,156.674938 C135.335192,156.009138 135.445822,155.352537 135.55541,154.695757" id="Fill-226-Copy-2" fill="#0C4C3B"></path>
            <path d="M132.55541,173.60524 C127.597414,171.475604 122.84926,168.970949 118.375502,165.825859 C111.745448,161.167116 105.93919,155.555113 100.55541,149.674938 C100.689045,150.296295 100.839422,150.899849 101.004278,151.486249 C108.7486,161.567731 119.675369,171.144737 132.210582,175.674938 C132.325675,174.984033 132.440467,174.295139 132.55541,173.60524" id="Fill-227-Copy-2" fill="#0C4C3B"></path>
            <path d="M129.55541,191.556509 C125.96172,190.117115 122.422027,188.577963 118.991757,186.727807 C113.523004,183.780011 108.738709,180.236358 103.882502,176.674938 C103.780351,177.197933 103.670542,177.722342 103.55541,178.246748 C110.250351,184.698364 119.703655,190.290705 129.211061,193.674938 C129.324503,192.973107 129.439502,192.267909 129.55541,191.556509" id="Fill-228-Copy-2" fill="#0C4C3B"></path>
            <path d="M126.239257,210.674938 C126.342516,210.006426 126.447281,209.327404 126.55541,208.63232 C123.065236,206.779569 119.588713,204.905701 116.250835,202.813198 C112.637173,200.547062 109.146177,198.09965 105.946874,195.351672 C103.881802,193.577912 102.068798,191.579902 100.16065,189.674938 C99.9592811,190.331176 99.7578343,190.980545 99.5554103,191.621907 C103.143303,196.232217 108.68353,200.163642 113.3466,203.247134 C117.461329,205.968252 121.777204,208.457187 126.239257,210.674938" id="Fill-229-Copy-2" fill="#0C4C3B"></path>
            <path d="M124.175036,227.674938 C124.307455,226.904716 124.434246,226.156918 124.55541,225.431545 C120.912484,223.859896 117.303665,222.224796 113.792368,220.372274 C106.75544,216.659022 100.510439,212.486044 94.5669883,207.674938 C94.5332646,208.535437 94.5730139,209.432415 94.6888393,210.363382 C98.7656417,214.730542 105.679263,218.148984 110.536611,220.877063 C114.88737,223.320905 119.449642,225.676138 124.175036,227.674938" id="Fill-230-Copy-2" fill="#0C4C3B"></path>
            <path d="M102.55541,228.674938 C102.969287,229.439571 103.38535,230.196769 103.803282,230.941606 C109.313197,234.489686 115.177571,237.781756 121.163906,240.674938 C121.294647,239.992888 121.424957,239.313692 121.55541,238.633544 C115.243767,235.27602 108.901051,231.955253 102.55541,228.674938" id="Fill-231-Copy-2" fill="#0C4C3B"></path>
            <path d="M148.332133,196.514256 C151.960133,180.810256 156.195133,139.449256 157.802133,122.882256 C149.492133,121.639256 148.131133,131.486256 144.999133,135.939256 C140.865133,141.817256 134.939133,147.742256 132.181133,159.688256 C128.413133,176.015256 127.786133,183.747256 129.463133,194.442256 C131.141133,205.138256 127.655133,214.325256 126.828133,228.033256 C125.789133,245.243256 128.341133,248.299256 131.917133,254.184256 C135.494133,260.068256 133.877133,264.765256 133.877133,264.765256 L136.116133,264.475256 C136.447133,259.710256 137.052133,253.272256 138.121133,247.824256 C140.094133,237.756256 143.748133,216.355256 148.332133,196.514256" id="Fill-232-Copy" fill="#00917A" transform="translate(142.198178, 193.769962) rotate(12.000000) translate(-142.198178, -193.769962) "></path>
            <path d="M141.803827,257.611539 C146.136827,254.559539 156.241827,257.048539 163.721827,247.693539 C174.548827,234.155539 173.777827,222.884539 172.489827,205.662539 C171.341827,190.301539 174.070827,190.923539 174.901827,172.440539 C175.731827,153.957539 172.313827,151.554539 168.949827,142.988539 C165.586827,134.420539 166.002827,128.068539 159.185827,126.063539 C158.602827,125.892539 158.051827,125.772539 157.525827,125.693539 C155.918827,142.260539 151.683827,183.621539 148.055827,199.325539 C143.471827,219.166539 139.817827,240.567539 137.844827,250.635539 C136.775827,256.083539 136.170827,262.521539 135.839827,267.286539 L138.359827,266.958539 C138.359827,266.958539 137.470827,260.663539 141.803827,257.611539" id="Fill-233-Copy" fill="#286B59" transform="translate(155.433812, 196.490039) rotate(12.000000) translate(-155.433812, -196.490039) "></path>
            <path d="M167.107425,130.437158 C166.236425,130.041158 165.415425,129.559158 164.589425,129.091158 C164.364425,129.333158 164.150425,129.590158 163.943425,129.857158 C166.159425,131.093158 168.388425,132.183158 170.776425,133.009158 C170.815425,132.619158 170.855425,132.228158 170.892425,131.852158 C169.611425,131.437158 168.338425,130.998158 167.107425,130.437158" id="Fill-234-Copy" fill="#21594A" transform="translate(167.417925, 131.050158) rotate(12.000000) translate(-167.417925, -131.050158) "></path>
            <path d="M159.192947,134.718561 C158.961947,135.225561 158.733947,135.726561 158.505947,136.211561 C161.413947,138.788561 164.471947,141.102561 168.000947,142.830561 C168.047947,142.384561 168.093947,141.945561 168.139947,141.507561 C166.046947,140.092561 163.965947,138.651561 161.986947,137.097561 C161.052947,136.364561 160.146947,135.504561 159.192947,134.718561" id="Fill-235-Copy" fill="#21594A" transform="translate(163.322947, 138.774561) rotate(12.000000) translate(-163.322947, -138.774561) "></path>
            <path d="M150.86646,143.564436 C155.23746,147.114436 159.90046,150.523436 164.69546,153.546436 C164.77446,152.842436 164.85446,152.139436 164.93146,151.442436 C160.71846,148.206436 156.22746,145.193436 151.69646,142.452436 C151.42246,142.817436 151.14546,143.188436 150.86646,143.564436" id="Fill-236-Copy" fill="#21594A" transform="translate(157.898960, 147.999436) rotate(12.000000) translate(-157.898960, -147.999436) "></path>
            <path d="M143.793749,150.677963 C149.551749,155.212963 155.220749,160.034963 161.353749,164.118963 C161.429749,163.504963 161.502749,162.888963 161.576749,162.273963 C155.860749,158.072963 149.815749,154.251963 144.114749,150.048963 C144.006749,150.253963 143.900749,150.467963 143.793749,150.677963" id="Fill-237-Copy" fill="#21594A" transform="translate(152.685249, 157.083963) rotate(12.000000) translate(-152.685249, -157.083963) "></path>
            <path d="M138.095179,159.915288 C144.383179,164.908288 151.164179,169.549288 157.958179,173.972288 C158.029179,173.439288 158.100179,172.899288 158.171179,172.361288 C151.886179,167.466288 145.227179,162.809288 138.345179,158.935288 C138.260179,159.259288 138.175179,159.582288 138.095179,159.915288" id="Fill-238-Copy" fill="#21594A" transform="translate(148.133179, 166.453788) rotate(12.000000) translate(-148.133179, -166.453788) "></path>
            <path d="M133.76064,169.171822 C133.70764,169.459822 133.65664,169.742822 133.60464,170.024822 C138.68164,176.051822 146.47564,180.956822 154.16964,184.237822 C154.24864,183.737822 154.32664,183.237822 154.40364,182.725822 C151.69764,181.298822 149.01764,179.823822 146.42164,178.212822 C141.99164,175.463822 138.11464,171.988822 133.76064,169.171822" id="Fill-239-Copy" fill="#21594A" transform="translate(144.004140, 176.704822) rotate(12.000000) translate(-144.004140, -176.704822) "></path>
            <path d="M129.6536,182.268054 C129.6476,182.554054 129.6446,182.837054 129.6426,183.121054 C136.4226,186.744054 142.8676,191.017054 149.6756,194.614054 C149.7976,194.047054 149.9196,193.457054 150.0426,192.839054 C146.8406,191.073054 143.5506,189.434054 140.3436,187.725054 C136.8216,185.848054 133.3196,183.875054 129.6536,182.268054" id="Fill-240-Copy" fill="#21594A" transform="translate(139.842600, 188.441054) rotate(12.000000) translate(-139.842600, -188.441054) "></path>
            <path d="M128.475608,194.686614 C133.901608,198.017614 139.515608,201.238614 145.344608,203.810614 C145.437608,203.376614 145.531608,202.941614 145.626608,202.506614 C139.939608,199.442614 134.078608,196.642614 128.341608,193.652614 C128.393608,193.999614 128.433608,194.342614 128.475608,194.686614" id="Fill-241-Copy" fill="#21594A" transform="translate(136.984108, 198.731614) rotate(12.000000) translate(-136.984108, -198.731614) "></path>
            <path d="M126.299026,204.742889 C130.967026,208.015889 135.882026,211.081889 141.109026,213.448889 C141.212026,212.935889 141.316026,212.420889 141.421026,211.904889 C136.328026,209.394889 131.251026,206.880889 126.372026,203.948889 C126.346026,204.213889 126.327026,204.477889 126.299026,204.742889" id="Fill-242-Copy" fill="#21594A" transform="translate(133.860026, 208.698889) rotate(12.000000) translate(-133.860026, -208.698889) "></path>
            <path d="M123.263791,213.239581 C127.563791,216.688581 132.563791,219.724581 137.576791,221.893581 C137.666791,221.428581 137.756791,220.963581 137.847791,220.493581 C133.058791,217.613581 128.264791,214.738581 123.474791,211.857581 C123.403791,212.314581 123.333791,212.775581 123.263791,213.239581" id="Fill-243-Copy" fill="#21594A" transform="translate(130.555791, 216.875581) rotate(12.000000) translate(-130.555791, -216.875581) "></path>
            <path d="M120.278567,220.645171 C120.254567,220.873171 120.234567,221.111171 120.210567,221.343171 C124.941567,224.449171 129.002567,228.097171 133.887567,230.789171 C133.967567,230.355171 134.049567,229.919171 134.132567,229.475171 C132.379567,228.523171 130.644567,227.543171 128.963567,226.468171 C126.017567,224.582171 123.357567,222.309171 120.278567,220.645171" id="Fill-244-Copy" fill="#21594A" transform="translate(127.171567, 225.717171) rotate(12.000000) translate(-127.171567, -225.717171) "></path>
            <path d="M117.941065,229.542172 C117.931065,229.881172 117.926065,230.210172 117.920065,230.536172 C121.429065,233.730172 126.175065,236.511172 130.776065,237.887172 C130.865065,237.411172 130.956065,236.922172 131.048065,236.425172 C128.919065,235.513172 126.752065,234.698172 124.693065,233.610172 C122.359065,232.378172 120.183065,230.915172 117.941065,229.542172" id="Fill-245-Copy" fill="#21594A" transform="translate(124.484065, 233.714672) rotate(12.000000) translate(-124.484065, -233.714672) "></path>
            <path d="M116.570524,238.94286 C119.954524,241.54786 123.618524,243.97286 127.466524,245.89686 C127.538524,245.49586 127.607524,245.08886 127.685524,244.69586 C127.709524,244.56886 127.735524,244.43286 127.761524,244.30186 C123.944524,242.19886 120.142524,240.11386 116.434524,237.80286 C116.475524,238.19586 116.520524,238.57686 116.570524,238.94286" id="Fill-246-Copy" fill="#21594A" transform="translate(122.098024, 241.849860) rotate(12.000000) translate(-122.098024, -241.849860) "></path>
            <path d="M177.403541,223.908083 C185.013627,212.546055 200.997089,180.905534 207.331054,168.203241 C201.373065,164.532091 197.29863,171.951161 193.535774,174.494846 C188.568975,177.852621 182.220242,180.670139 176.432648,189.313795 C168.523657,201.127837 165.661389,207.095794 163.643754,216.171051 C161.626573,225.247429 156.13407,231.454696 151.276754,242.126998 C145.177979,255.525532 146.183184,258.787004 147.09759,264.636157 C148.013067,270.484835 145.331054,273.711685 145.331054,273.711685 L147.129003,274.202145 C148.850657,270.50641 151.297191,265.563967 153.792572,261.56114 C158.402149,254.163029 167.78849,238.263198 177.403541,223.908083" id="Fill-232-Copy-3" fill="#00917A" transform="translate(176.331054, 220.702145) rotate(20.000000) translate(-176.331054, -220.702145) "></path>
            <path d="M153.463854,269.621566 C157.762943,268.578701 164.791045,273.845048 173.48769,268.770069 C186.074804,261.426633 188.996516,252.144768 193.375971,237.926561 C197.282817,225.245032 199.196519,226.627064 205.606135,212.084409 C212.014978,197.541429 210.124888,194.509078 210.199722,186.55537 C210.275953,178.600384 212.579454,173.644775 207.939874,169.83086 C207.542944,169.505066 207.154814,169.230502 206.773199,168.996888 C200.362127,181.752871 184.184086,213.527129 176.481357,224.937182 C166.749255,239.352973 157.248647,255.320009 152.582954,262.749391 C150.057195,266.769137 147.580878,271.73247 145.838265,275.443826 L147.886997,275.996888 C147.886997,275.996888 149.164766,270.664432 153.463854,269.621566" id="Fill-233-Copy-3" fill="#286B59" transform="translate(178.338265, 222.496888) rotate(20.000000) translate(-178.338265, -222.496888) "></path>
            <path d="M218.218483,182.122311 C217.639768,181.539621 217.130031,180.905668 216.611621,180.281048 C216.348902,180.398764 216.090204,180.53163 215.833915,180.67449 C217.231142,182.33499 218.686962,183.885835 220.359016,185.281048 C220.519012,184.989477 220.680151,184.697443 220.833915,184.41615 C219.927734,183.6896 219.035956,182.94687 218.218483,182.122311" id="Fill-234-Copy-3" fill="#21594A" transform="translate(218.333915, 182.781048) rotate(20.000000) translate(-218.333915, -182.781048) "></path>
            <path d="M210.086135,182.380113 C209.737196,182.699121 209.392599,183.014436 209.053178,183.317412 C210.547778,186.210751 212.247541,188.948008 214.513945,191.380113 C214.69584,191.050818 214.874671,190.726609 215.053178,190.403171 C213.835206,188.659856 212.635252,186.900229 211.553512,185.085242 C211.042843,184.228971 210.595672,183.283487 210.086135,182.380113" id="Fill-235-Copy-3" fill="#21594A" transform="translate(212.053178, 186.880113) rotate(20.000000) translate(-212.053178, -186.880113) "></path>
            <path d="M200.020881,185.52352 C202.179811,189.751359 204.595286,193.960886 207.222452,197.90584 C207.489632,197.371331 207.75725,196.837937 208.020881,196.308352 C205.88484,192.381008 203.478191,188.541689 200.961346,184.90584 C200.651501,185.108084 200.337669,185.314135 200.020881,185.52352" id="Fill-236-Copy-3" fill="#21594A" transform="translate(204.020881, 191.405840) rotate(20.000000) translate(-204.020881, -191.405840) "></path>
            <path d="M191.928277,188.177117 C194.925504,193.722326 197.766251,199.47042 201.188901,204.773588 C201.436323,204.302184 201.682073,203.828183 201.928277,203.355317 C198.860089,198.093754 195.423498,193.03187 192.367379,187.773588 C192.221688,187.904 192.074747,188.042338 191.928277,188.177117" id="Fill-237-Copy-3" fill="#21594A" transform="translate(196.928277, 196.273588) rotate(20.000000) translate(-196.928277, -196.273588) "></path>
            <path d="M183.865826,192.197679 C186.987787,198.431544 190.574103,204.538958 194.234309,210.470326 C194.443634,210.053014 194.655025,209.629909 194.865826,209.20846 C191.717115,203.056691 188.224708,196.976826 184.338025,191.470326 C184.180195,191.710013 184.02266,191.948873 183.865826,192.197679" id="Fill-238-Copy-3" fill="#21594A" transform="translate(189.365826, 200.970326) rotate(20.000000) translate(-189.365826, -200.970326) "></path>
            <path d="M176.784494,197.448776 C176.654778,197.666054 176.528142,197.879916 176.401049,198.092634 C178.424555,204.676714 182.876266,211.241022 187.753933,216.448776 C187.969167,216.067271 188.183634,215.685437 188.401049,215.293493 C186.77006,213.239354 185.173839,211.154656 183.68404,208.986773 C181.141702,205.287445 179.247579,201.1785 176.784494,197.448776" id="Fill-239-Copy-3" fill="#21594A" transform="translate(182.401049, 206.948776) rotate(20.000000) translate(-182.401049, -206.948776) "></path>
            <path d="M168.712451,206.165755 C168.623908,206.387782 168.538434,206.608409 168.453394,206.830136 C172.32591,211.811526 175.7631,217.195865 179.663664,222.165755 C179.919405,221.760413 180.181915,221.337062 180.453394,220.892105 C178.640691,218.496506 176.726509,216.172504 174.893388,213.819951 C172.880254,211.236216 170.909942,208.583644 168.712451,206.165755" id="Fill-240-Copy-3" fill="#21594A" transform="translate(174.453394, 214.165755) rotate(20.000000) translate(-174.453394, -214.165755) "></path>
            <path d="M162.958462,214.209875 C165.87465,218.751043 168.95697,223.26422 172.380362,227.315216 C172.572155,226.989278 172.764951,226.66285 172.958462,226.336754 C169.778633,221.928411 166.398208,217.679326 163.161273,213.315216 C163.098237,213.61779 163.027779,213.913089 162.958462,214.209875" id="Fill-241-Copy-3" fill="#21594A" transform="translate(167.958462, 220.315216) rotate(20.000000) translate(-167.958462, -220.315216) "></path>
            <path d="M156.463531,221.058308 C159.199483,225.064222 162.205818,228.986892 165.698247,232.464676 C165.951973,232.098649 166.207178,231.731384 166.463531,231.363655 C163.12793,227.816872 159.806735,224.272002 156.785566,220.464676 C156.676748,220.662289 156.573985,220.861322 156.463531,221.058308" id="Fill-242-Copy-3" fill="#21594A" transform="translate(161.463531, 226.464676) rotate(20.000000) translate(-161.463531, -226.464676) "></path>
            <path d="M151.451476,225.947058 C153.696236,230.232293 156.610491,234.409963 159.805324,237.875608 C160.01993,237.521442 160.234537,237.167277 160.451476,236.809314 C157.651502,232.830978 154.846106,228.855104 152.045671,224.875608 C151.848235,225.229506 151.650324,225.587043 151.451476,225.947058" id="Fill-243-Copy-3" fill="#21594A" transform="translate(155.951476, 231.375608) rotate(20.000000) translate(-155.951476, -231.375608) "></path>
            <path d="M145.591971,229.914365 C145.504635,230.095792 145.417269,230.286872 145.328718,230.471623 C147.943193,234.641498 149.889038,239.036846 152.745147,242.914365 C152.937202,242.580541 153.131368,242.245726 153.328718,241.904598 C152.299528,240.524799 151.292385,239.127774 150.354726,237.669929 C148.712069,235.113326 147.402123,232.331128 145.591971,229.914365" id="Fill-244-Copy-3" fill="#21594A" transform="translate(149.328718, 236.414365) rotate(20.000000) translate(-149.328718, -236.414365) "></path>
            <path d="M140.601042,236.496307 C140.491659,236.743863 140.389005,236.985521 140.286509,237.224663 C141.937717,240.633013 144.633788,244.105499 147.644432,246.496307 C147.853809,246.171089 148.068584,245.836861 148.286509,245.497018 C146.976189,244.187275 145.608418,242.937873 144.403121,241.518957 C143.036451,239.9115 141.856839,238.1805 140.601042,236.496307" id="Fill-245-Copy-3" fill="#21594A" transform="translate(144.286509, 241.496307) rotate(20.000000) translate(-144.286509, -241.496307) "></path>
            <path d="M135.103444,242.829142 C136.911654,245.993954 138.99342,249.105487 141.374873,251.877085 C141.556364,251.580771 141.737407,251.278711 141.921045,250.990702 C141.979452,250.897242 142.042232,250.797256 142.103444,250.701253 C139.802122,247.797018 137.506792,244.911953 135.35518,241.877085 C135.263834,242.2034 135.17935,242.521441 135.103444,242.829142" id="Fill-246-Copy-3" fill="#21594A" transform="translate(138.603444, 246.877085) rotate(20.000000) translate(-138.603444, -246.877085) "></path>
            <circle id="Oval-Copy-30" fill="#333333" cx="99.1821826" cy="296" r="4"></circle>
            <circle id="Oval-Copy-31" fill="#333333" cx="125.182183" cy="296" r="4"></circle>
            <ellipse id="Oval-Copy-10" stroke="#FE9281" fill="#FE9281" cx="127.682183" cy="306" rx="3.5" ry="2"></ellipse>
            <ellipse id="Oval-Copy-9" stroke="#FE9281" fill="#FE9281" cx="95.6821826" cy="306" rx="3.5" ry="2"></ellipse>
            <circle id="Oval-Copy-25" stroke="#FFFFFF" fill="#FFFFFF" cx="97.1821826" cy="295" r="1"></circle>
            <circle id="Oval-Copy-24" stroke="#FFFFFF" fill="#FFFFFF" cx="123.182183" cy="295" r="1"></circle>
            <g id="Group-17-Copy-3" transform="translate(89.682183, 288.000000) rotate(-25.000000) translate(-89.682183, -288.000000) translate(84.182183, 282.000000)">
                <path d="M8.04594128,1.52129258 C6.84117998,1.74727852 5.98718984,2.34213566 5.4825593,3.30466833 C5.33505192,0.330980444 2.43501432,-2.01915367 2.47312627,2.62132992 C-0.143188979,-1.28200909 -1.31266143,4.88836339 2.1597613,6.48461322 C7.53919341,8.95790369 10.6940165,1.73771297 8.04594128,1.52129258" id="Fill-1219" fill="#FCA395"></path>
                <path d="M10.3391963,6.43163387 C9.06328612,6.79822798 7.78737591,7.49174153 6.72005551,8.11278264 C6.17958568,8.42700617 5.69359291,8.76238953 5.21691859,9.10570783 C5.20975056,7.97630171 5.02051444,6.82309079 4.17755353,6.08831557 C4.00838791,5.94072573 3.6585878,5.98992234 3.53959842,6.1486211 C3.03711918,6.81621384 3.10664912,7.62822245 3.10664912,8.37728056 C3.10593231,9.32629909 3.08801223,10.2684407 3.00199581,11.2158722 C2.94250112,11.8691821 4.22844658,12.2823278 4.81407503,11.7697309 C5.75523801,10.9450264 6.74155962,10.1351337 7.7436509,9.3506329 C8.73929095,8.57089303 9.90696383,7.89166238 10.8667637,7.09975561 C11.1929093,6.83049673 10.8832502,6.2750511 10.3391963,6.43163387" id="Fill-1220" fill="#094235"></path>
            </g>
            <path d="M111.51499,309 C115.51499,309 118.737387,312 121.182183,318 L103.182183,318 C104.737387,312 107.51499,309 111.51499,309 Z" id="Triangle-Copy" stroke="#F47979" fill="#F47979" stroke-linejoin="round" transform="translate(112.182183, 313.500000) rotate(-180.000000) translate(-112.182183, -313.500000) "></path>
        </g>
    </g>
</svg>