<?xml version="1.0" encoding="UTF-8"?>
<svg width="122px" height="349px" viewBox="0 0 122 349" version="1.1" xmlns="http://www.w3.org/2000/svg" xmlns:xlink="http://www.w3.org/1999/xlink">
    <!-- Generator: Sketch 55.1 (78136) - https://sketchapp.com -->
    <title>Group 32</title>
    <desc>Created with Sketch.</desc>
    <g id="Page-1" stroke="none" stroke-width="1" fill="none" fill-rule="evenodd">
        <g id="Group-32">
            <path d="M31.2661928,266.62405 C31.5581928,267.76005 36.5311928,340.82905 36.5311928,340.82905 C36.5311928,340.82905 48.8201928,349.18305 71.9341928,348.04305 C95.0481928,346.90205 101.776193,338.47405 101.776193,338.47405 C101.776193,338.47405 107.921193,263.83505 107.043193,264.37405 C106.165193,264.91305 69.1971928,268.47205 69.1971928,268.47205 L31.2661928,266.62405" id="Fill-190-Copy-11" fill="#FCD783"></path>
            <path d="M101.776193,338.47405 C101.776193,338.47405 107.921193,263.83505 107.043193,264.37405 C106.558193,264.67305 95.0091928,265.89605 84.7951928,266.92905 L82.2571928,278.00505 L81.1811928,347.09905 C96.8921928,344.57905 101.776193,338.47405 101.776193,338.47405" id="Fill-191-Copy-11" fill="#FCB924"></path>
            <path d="M107.101193,264.51405 C107.067193,264.43205 107.043193,264.37405 107.043193,264.37405 C106.165193,264.91305 69.1971928,268.47205 69.1971928,268.47205 L31.2661928,266.62405 C31.3231928,266.84905 31.5661928,269.91705 31.9181928,274.67805 C36.2651928,276.37905 47.4421928,278.85305 63.9311928,279.34305 C90.6831928,280.13605 99.8111928,277.07505 106.726193,273.62305 C107.038193,268.62805 107.196193,265.22105 107.101193,264.51405" id="Fill-192-Copy-4" fill="#FCB924"></path>
            <path d="M26.6671928,256.85305 L27.6911928,269.38005 C27.6911928,269.38005 41.1891928,276.85505 70.5541928,276.28105 C96.0601928,275.78305 110.257193,268.90405 110.257193,268.90405 L110.257193,256.85305 L26.6671928,256.85305" id="Fill-193-Copy-11" fill="#FCD783"></path>
            <path d="M110.257193,256.85305 L86.8511928,256.85305 L77.5761928,261.42505 C77.5761928,261.42505 77.5761928,269.79405 77.8161928,275.95505 C98.7361928,274.48105 110.257193,268.90405 110.257193,268.90405 L110.257193,256.85305" id="Fill-194-Copy-11" fill="#FCB924"></path>
            <path d="M103.702193,260.25705 C107.846193,259.27305 110.257193,258.10605 110.257193,256.85305 C110.257193,253.35405 91.5441928,250.51805 68.4621928,250.51805 C45.3791928,250.51805 26.6671928,253.35405 26.6671928,256.85305 C26.6671928,258.24805 29.6491928,259.53705 34.6921928,260.58405 C42.1621928,257.65005 55.0181928,255.71205 69.6321928,255.71205 C83.6951928,255.71205 96.1271928,257.50705 103.702193,260.25705" id="Fill-195-Copy-11" fill="#FCB924"></path>
            <path d="M103.702193,260.25705 C96.1271928,257.50705 83.6951928,255.71205 69.6321928,255.71205 C55.0181928,255.71205 42.1621928,257.65005 34.6921928,260.58405 C42.2931928,262.16105 54.5841928,263.18705 68.4621928,263.18705 C83.2751928,263.18705 96.2791928,262.01705 103.702193,260.25705" id="Fill-196-Copy-11" fill="#333333"></path>
            <path d="M110.257193,256.85305 C110.257193,254.10605 98.7151928,251.76805 82.5821928,250.89005 C76.6901928,252.68005 71.2301928,254.63205 71.1091928,255.72205 L71.1091928,255.72305 C84.5611928,255.84505 96.3941928,257.60405 103.702193,260.25705 C107.846193,259.27305 110.257193,258.10605 110.257193,256.85305" id="Fill-197-Copy-11" fill="#FDE7B4"></path>
            <path d="M48.6761928,211.87605 C48.7111928,199.17005 45.7631928,119.09805 43.0421928,96.5450503 C40.3221928,73.9910503 28.5221928,31.7270503 23.3351928,12.1530503 C21.8151928,6.42005025 20.3951928,2.58105025 19.1441928,0.00605025083 C13.7951928,-0.335949749 11.1281928,13.8730503 9.93219281,29.4350503 C8.71119281,45.3340503 -0.232807188,49.7600503 1.99119281,66.4950503 C4.21719281,83.2310503 14.3631928,97.0360503 14.3881928,112.19205 C14.4131928,127.34805 -5.20780719,166.69905 1.33619281,187.46505 C7.88019281,208.23005 30.5751928,226.03005 37.1541928,234.08605 C43.7341928,242.14105 47.3031928,260.19605 47.3031928,260.19605 C47.3031928,260.19605 48.7081928,260.68505 49.9681928,260.91605 C49.1991928,257.08805 48.2681928,252.10305 47.6641928,247.69305 C46.4821928,239.04905 48.6411928,224.58205 48.6761928,211.87605" id="Fill-198-Copy-3" fill="#286B59"></path>
            <path d="M51.9221928,260.62405 C52.0721928,259.49605 48.0441928,235.68105 52.6831928,228.41905 C64.9521928,209.20905 65.4891928,124.91205 55.7841928,77.4090503 C46.0791928,29.9070503 26.4291928,1.27805025 19.4931928,0.0380502508 C19.3751928,0.0170502508 19.2601928,0.0130502508 19.1441928,0.00605025083 C20.3951928,2.58105025 21.8151928,6.42005025 23.3351928,12.1530503 C28.5221928,31.7270503 40.3221928,73.9910503 43.0421928,96.5450503 C45.7631928,119.09805 48.7111928,199.17005 48.6761928,211.87605 C48.6411928,224.58205 46.4821928,239.04905 47.6641928,247.69305 C48.2681928,252.10305 49.1991928,257.08805 49.9681928,260.91605 C50.9561928,261.09605 51.8551928,261.11905 51.9221928,260.62405" id="Fill-199-Copy-3" fill="#00917A"></path>
            <path d="M26.161,22.438 C26.017,21.94 25.873,21.45 25.731,20.986 C22.972,20.302 20.198,19.642 17.423,19 C17.278,19.406 17.138,19.832 17,20.271 C19.888,21.457 23.115,22.235 26.161,22.438" id="Fill-200-Copy-3" fill="#0C4C3B"></path>
            <path d="M27.637,28.768 C27.488,28.209 27.34,27.661 27.195,27.119 C25.855,26.98 24.514,26.837 23.178,26.665 C20.014,26.258 16.281,26.068 13.128,25 C13.085,25.29 13.041,25.579 13,25.873 C15.178,26.753 17.561,27.166 19.885,27.61 C22.445,28.098 25.035,28.508 27.637,28.768" id="Fill-201-Copy-3" fill="#0C4C3B"></path>
            <path d="M29.9251928,36.8810503 C29.7941928,36.3840503 29.6641928,35.8880503 29.5351928,35.3960503 C22.8221928,35.3830503 15.5861928,35.3510503 9.46819281,33.2090503 C9.42519281,33.4630503 9.38119281,33.7150503 9.33419281,33.9620503 C15.6311928,36.5040503 23.0001928,37.1050503 29.9251928,36.8810503" id="Fill-202-Copy-3" fill="#0C4C3B"></path>
            <path d="M33.1691928,49.4680503 C33.0051928,48.8160503 32.8401928,48.1640503 32.6751928,47.5140503 C29.0601928,47.1180503 25.4361928,46.7950503 21.8321928,46.3340503 C19.2431928,46.0040503 16.6601928,45.6270503 14.0791928,45.2430503 C11.7561928,44.8970503 8.64319281,44.8260503 6.26619281,43.8100503 C6.13819281,44.1200503 6.01119281,44.4280503 5.88319281,44.7350503 C8.95919281,46.5070503 13.2861928,46.8090503 16.4931928,47.3750503 C21.9711928,48.3420503 27.5751928,49.1920503 33.1691928,49.4680503" id="Fill-203-Copy-3" fill="#0C4C3B"></path>
            <path d="M36.4251928,62.7420503 C36.2631928,62.0570503 36.0991928,61.3710503 35.9341928,60.6840503 C30.6241928,60.5110503 25.3061928,60.5130503 20.0051928,59.9920503 C13.7951928,59.3800503 7.91319281,58.0110503 2.08219281,56.1260503 C2.00419281,56.5830503 1.93619281,57.0520503 1.87719281,57.5280503 C12.1971928,62.2340503 24.9701928,63.2690503 36.4251928,62.7420503" id="Fill-204-Copy-3" fill="#0C4C3B"></path>
            <path d="M39.8121928,77.8870503 C39.6691928,77.1970503 39.5231928,76.5030503 39.3741928,75.8020503 C27.3211928,73.6130503 14.9541928,73.0610503 2.83919281,71.2470503 C2.96319281,71.8070503 3.09519281,72.3650503 3.23319281,72.9190503 C8.53819281,74.4440503 14.7251928,74.5930503 19.8921928,75.3140503 C26.4841928,76.2340503 33.1511928,77.3510503 39.8121928,77.8870503" id="Fill-205-Copy-3" fill="#0C4C3B"></path>
            <path d="M25.3001928,89.0370503 C30.7141928,89.3090503 36.4441928,89.5890503 41.9361928,89.0510503 C41.8111928,88.3090503 41.6821928,87.5570503 41.5441928,86.7910503 C36.2021928,86.8160503 30.8511928,87.1730503 25.4971928,86.9640503 C19.4501928,86.7270503 13.4371928,86.0210503 7.40119281,85.6910503 C7.54719281,86.0760503 7.69219281,86.4600503 7.83919281,86.8430503 C13.5371928,88.2040503 19.4611928,88.7430503 25.3001928,89.0370503" id="Fill-206-Copy-3" fill="#0C4C3B"></path>
            <path d="M12.6001928,100.46305 C12.8101928,101.22305 13.0081928,101.98405 13.1871928,102.74605 C22.8521928,105.78105 34.4351928,105.78705 43.7271928,103.32605 C43.6711928,102.69205 43.6151928,102.07005 43.5601928,101.47405 C37.2501928,102.34505 31.0061928,103.05105 24.5971928,102.57905 C20.4771928,102.27605 16.5411928,101.40005 12.6001928,100.46305" id="Fill-207-Copy-3" fill="#0C4C3B"></path>
            <path d="M14.3351928,113.64905 C14.3021928,114.14005 14.2501928,114.65405 14.1851928,115.18405 C18.4081928,116.69005 23.2571928,116.85405 27.6491928,116.93405 C33.2351928,117.03505 39.0851928,116.69705 44.6441928,115.50405 C44.5941928,114.74605 44.5431928,113.99905 44.4921928,113.26505 C34.6391928,114.81405 23.8301928,116.41705 14.3351928,113.64905" id="Fill-208-Copy-3" fill="#0C4C3B"></path>
            <path d="M13.0681928,121.18405 C12.9441928,121.71305 12.8151928,122.24905 12.6781928,122.79705 C18.3431928,124.46005 24.2491928,125.59405 29.9951928,126.51205 C34.8391928,127.28605 40.3881928,127.98105 45.3431928,126.83405 C45.2931928,125.97205 45.2431928,125.11605 45.1931928,124.27105 C34.3481928,125.94605 23.8101928,123.28305 13.0681928,121.18405" id="Fill-209-Copy-3" fill="#0C4C3B"></path>
            <path d="M10.3811928,131.07605 C10.2171928,131.63105 10.0521928,132.18805 9.88319281,132.75305 C17.7751928,132.96705 25.2511928,133.59105 33.1011928,135.92005 C37.4291928,137.20405 41.6991928,138.69605 46.0421928,139.84105 C45.9981928,138.97405 45.9541928,138.11105 45.9091928,137.25205 C34.1901928,133.96805 22.4461928,129.85505 10.3811928,131.07605" id="Fill-210-Copy-3" fill="#0C4C3B"></path>
            <path d="M27.1791928,146.06005 C20.6671928,144.79205 13.9791928,142.45105 7.27219281,141.40805 C7.07619281,142.06305 6.88019281,142.72105 6.68419281,143.38305 C13.8111928,145.55305 21.1961928,147.42205 28.3921928,148.83805 C34.1481928,149.97005 40.5781928,150.68005 46.5151928,149.56105 C46.4721928,148.65105 46.4291928,147.74205 46.3861928,146.83505 C39.9881928,147.52505 33.7611928,147.34305 27.1791928,146.06005" id="Fill-211-Copy-3" fill="#0C4C3B"></path>
            <path d="M4.33319281,151.64105 C4.21019281,152.09905 4.08419281,152.55705 3.96419281,153.01505 C14.3721928,154.41805 23.6171928,159.16405 33.9901928,161.30905 C38.1891928,162.17805 42.8001928,162.43405 47.0521928,161.57305 C47.0181928,160.79205 46.9841928,160.00905 46.9501928,159.22405 C33.2221928,162.03305 18.7261928,151.70605 4.33319281,151.64105" id="Fill-212-Copy-3" fill="#0C4C3B"></path>
            <path d="M47.6401928,176.08705 C47.6011928,175.08705 47.5611928,174.07605 47.5211928,173.05705 C47.2681928,172.99305 47.0141928,172.92805 46.7581928,172.86005 C41.9261928,171.58705 37.0821928,170.37505 32.1871928,169.34805 C22.2011928,167.25305 11.5281928,165.25305 1.22119281,165.263013 C1.15719281,165.61905 1.09019281,165.97705 1.03119281,166.33205 C13.1571928,168.75205 25.4281928,170.15905 37.4781928,173.13405 C40.2671928,173.82205 43.9011928,175.16105 47.6401928,176.08705" id="Fill-213-Copy-3" fill="#0C4C3B"></path>
            <path d="M48.1091928,189.12905 C48.0811928,188.30605 48.0531928,187.47105 48.0231928,186.62205 C40.1281928,186.82205 32.2511928,187.37105 24.3461928,186.44805 C15.8251928,185.45405 8.18919281,181.74005 0.0651928123,179.70505 C0.0961928123,180.34105 0.137192812,180.97005 0.196192812,181.58705 C7.87919281,184.90705 15.7291928,187.87305 24.1051928,188.96105 C31.9371928,189.97705 40.1451928,190.01405 48.1091928,189.12905" id="Fill-214-Copy-3" fill="#0C4C3B"></path>
            <path d="M48.5941928,205.87605 C48.5781928,205.14005 48.5601928,204.36005 48.5391928,203.53705 C42.1591928,204.24305 34.9421928,202.47405 29.0991928,201.56005 C24.5461928,200.84705 20.0071928,200.05305 15.4811928,199.18805 C12.2481928,198.57005 8.78419281,198.10105 5.55519281,197.11605 C5.88019281,197.70505 6.21519281,198.29105 6.56019281,198.87305 C8.22019281,199.41605 9.95319281,199.81905 11.6851928,200.24405 C17.3731928,201.63805 23.1051928,202.84105 28.8841928,203.81405 C34.4891928,204.75905 42.1431928,206.80405 48.5941928,205.87605" id="Fill-215-Copy-3" fill="#0C4C3B"></path>
            <path d="M48.3821928,220.76905 C48.4291928,219.92205 48.4711928,219.07505 48.5081928,218.22905 C43.3691928,217.45705 38.4261928,215.66005 33.3121928,213.85905 C28.0831928,212.01705 21.0671928,209.50805 15.3461928,211.08705 C15.8061928,211.63705 16.2691928,212.18105 16.7331928,212.72005 C19.9971928,212.85305 23.1201928,213.01005 26.4801928,213.95405 C30.7211928,215.14605 34.7401928,216.94105 38.8891928,218.38705 C41.9621928,219.46005 45.1681928,220.39505 48.3821928,220.76905" id="Fill-216-Copy-3" fill="#0C4C3B"></path>
            <path d="M47.5451928,234.19305 C44.7581928,232.87705 42.0831928,231.34505 39.3331928,229.95305 C36.1161928,228.32305 32.7901928,226.73405 29.2941928,225.91805 C30.4511928,227.06405 31.5431928,228.14505 32.5501928,229.15705 C36.4231928,230.89005 40.1211928,232.95905 44.0291928,235.05205 C45.1171928,235.63505 46.2531928,236.22005 47.4211928,236.77305 C47.4561928,235.92805 47.4971928,235.06905 47.5451928,234.19305" id="Fill-217-Copy-3" fill="#0C4C3B"></path>
            <path d="M65.6141928,150.135569 C66.1851928,131.414095 62.2881928,73.0157914 61.1211928,56.1230503 C51.8601928,57.5816005 44.8631928,68.176987 44.6891928,81.6690031 C44.4831928,97.7104968 39.6151928,110.903126 34.3871928,120.122699 C29.1571928,129.342272 25.6251928,159.279229 34.3931928,170.782157 C43.1591928,182.28338 35.1731928,205.039323 34.7691928,215.344705 C34.3651928,225.650088 51.1681928,241.508196 55.4801928,247.060923 C59.7941928,252.614502 60.4581928,260.12305 60.4581928,260.12305 L62.8611928,260.001931 C63.3801928,250.987067 64.1771928,235.764408 64.2311928,226.390451 C64.3141928,212.413958 64.9461928,172.111059 65.6141928,150.135569" id="Fill-218-Copy-3" fill="#21594A"></path>
            <path d="M71.4461928,243.167604 C78.9451928,236.271508 102.430193,235.666063 96.1621928,194.037925 C89.8941928,152.41064 99.4221928,135.893947 95.8231928,124.755476 C92.2261928,113.617005 83.7261928,91.9881444 79.3581928,78.5728615 C74.9911928,65.1584313 77.3771928,58.975224 65.5821928,56.3453783 C63.7011928,55.925831 61.8711928,55.8780776 60.1211928,56.1535122 C61.2881928,73.0419992 65.1851928,131.425597 64.6141928,150.142355 C63.9461928,172.112312 63.3141928,212.405061 63.2311928,226.378035 C63.1771928,235.749632 62.3801928,250.968456 61.8611928,259.98105 L63.8391928,259.88128 C63.8391928,259.88128 63.9461928,250.064554 71.4461928,243.167604" id="Fill-219-Copy-3" fill="#286B59"></path>
            <path d="M62.2961928,74.1230503 C62.2481928,73.3657129 62.2001928,72.6256862 62.1531928,71.8951802 C60.5641928,70.910209 59.0011928,69.8958097 57.4931928,68.8078406 C55.0651928,67.0568767 52.8651928,65.0090366 50.5371928,63.1230503 C50.1701928,63.6120738 49.8151928,64.1210045 49.4771928,64.6524389 C51.5681928,66.6621957 54.0611928,68.4720156 56.3161928,70.1147884 C58.2351928,71.5117512 60.2231928,72.8697652 62.2961928,74.1230503" id="Fill-220-Copy-3" fill="#0C4C3B"></path>
            <path d="M63.1341928,87.5478016 C60.8101928,86.4048182 58.4981928,85.2441552 56.2501928,83.9880226 C52.3911928,81.8311165 48.7481928,79.4320005 45.0211928,77.1230503 C44.9771928,77.4678016 44.9351928,77.814321 44.8991928,78.1634922 C50.1851928,82.4720005 56.5831928,86.2854812 63.2261928,89.1230503 C63.1951928,88.5953154 63.1651928,88.0711165 63.1341928,87.5478016" id="Fill-221-Copy-3" fill="#0C4C3B"></path>
            <path d="M64.1101928,104.296058 C61.2971928,103.119704 58.5711928,101.795872 55.9411928,100.209182 C51.7541928,97.6838385 47.8791928,94.8340429 43.8681928,92.1230503 C43.8201928,92.4587796 43.7811928,92.799714 43.7301928,93.1319733 C49.4891928,98.1366827 56.5001928,103.233349 64.2071928,106.12305 C64.1751928,105.51492 64.1431928,104.905055 64.1101928,104.296058" id="Fill-222-Copy-3" fill="#0C4C3B"></path>
            <path d="M64.9171928,120.12305 C64.8931928,119.57685 64.8681928,119.028023 64.8441928,118.476571 C60.4351928,116.41869 56.0311928,114.394947 51.9031928,111.899406 C48.0681928,109.581555 44.7051928,106.659732 41.0641928,104.12305 C40.8811928,104.731399 40.6941928,105.334495 40.5011928,105.927088 C43.4371928,108.56268 47.1051928,110.849895 50.3041928,112.830748 C54.8261928,115.631776 59.7111928,118.274371 64.9171928,120.12305" id="Fill-223-Copy-3" fill="#0C4C3B"></path>
            <path d="M65.4901928,135.12305 C65.4771928,134.659758 65.4631928,134.192135 65.4481928,133.718451 C59.4451928,131.130074 53.4401928,128.727014 47.8331928,125.485698 C43.4961928,122.978722 39.6631928,120.052618 35.8031928,117.12305 C35.5841928,117.554302 35.3651928,117.981224 35.1441928,118.397754 C38.5421928,121.349838 42.4581928,123.963327 46.3131928,126.313563 C52.1021928,129.843247 58.6291928,133.225716 65.4901928,135.12305" id="Fill-224-Copy-3" fill="#0C4C3B"></path>
            <path d="M65.5431928,152.343114 C60.1391928,149.998869 54.7341928,147.663071 49.5261928,145.009639 C42.8771928,141.6221 36.5861928,137.839207 30.2191928,134.12305 C30.1681928,134.426324 30.1181928,134.729597 30.0711928,135.037095 C40.2441928,142.709323 52.7231928,149.484402 65.4921928,154.12305 C65.5091928,153.518193 65.5251928,152.927697 65.5431928,152.343114" id="Fill-225-Copy-3" fill="#0C4C3B"></path>
            <path d="M65.2161928,165.369524 C51.9231928,162.120038 40.4241928,155.621932 29.0611928,148.12305 C29.0621928,148.503761 29.0701928,148.881004 29.0771928,149.259113 C39.5521928,156.43452 51.7681928,164.171889 65.1771928,167.12305 C65.1891928,166.533338 65.2031928,165.951431 65.2161928,165.369524" id="Fill-226-Copy-3" fill="#0C4C3B"></path>
            <path d="M64.8721928,182.271376 C60.0021928,181.142787 55.2741928,179.657141 50.7111928,177.574007 C43.9491928,174.48878 37.8161928,170.453493 32.0361928,166.12305 C32.2451928,166.644282 32.4671928,167.147572 32.7001928,167.633816 C41.2381928,175.275562 52.6441928,182.013002 64.8391928,184.12305 C64.8501928,183.504928 64.8611928,182.8886 64.8721928,182.271376" id="Fill-227-Copy-3" fill="#0C4C3B"></path>
            <path d="M64.5831928,198.231451 C61.0091928,197.51569 57.4721928,196.70523 53.9951928,195.608307 C48.4521928,193.861123 43.4701928,191.494454 38.4181928,189.12305 C38.3941928,189.592596 38.3631928,190.064509 38.3271928,190.537212 C45.5041928,195.145864 55.1541928,198.597618 64.5511928,200.12305 C64.5611928,199.496463 64.5721928,198.866719 64.5831928,198.231451" id="Fill-228-Copy-3" fill="#0C4C3B"></path>
            <path d="M64.3451928,215.12305 C64.3521928,214.538222 64.3591928,213.944217 64.3671928,213.336029 C60.8321928,212.278166 57.3071928,211.20028 53.8831928,209.915494 C50.1761928,208.52392 46.5601928,206.959651 43.1781928,205.095877 C40.9951928,203.892849 39.0191928,202.46123 36.9661928,201.12305 C36.8651928,201.71205 36.7631928,202.295209 36.6591928,202.871695 C40.6581928,206.263864 46.4031928,208.786717 51.2081928,210.718068 C55.4481928,212.422496 59.8461928,213.899166 64.3451928,215.12305" id="Fill-229-Copy-3" fill="#0C4C3B"></path>
            <path d="M64.1781928,230.12305 C64.1921928,229.441264 64.2041928,228.77958 64.2141928,228.137998 C60.7261928,227.303773 57.2601928,226.410081 53.8521928,225.31537 C47.0221928,223.120924 40.8411928,220.41807 34.8441928,217.12305 C34.9311928,217.868492 35.0891928,218.634873 35.3201928,219.419681 C39.5791928,222.598277 46.2581928,224.556527 50.9951928,226.213251 C55.2381928,227.697433 59.6591928,229.075244 64.1781928,230.12305" id="Fill-230-Copy-3" fill="#0C4C3B"></path>
            <path d="M44.5571928,234.12305 C45.0551928,234.74779 45.5541928,235.365531 46.0531928,235.971896 C51.7401928,238.336109 57.7241928,240.417702 63.7661928,242.12305 C63.7921928,241.49131 63.8181928,240.862195 63.8441928,240.232205 C57.4301928,238.158487 50.9921928,236.122394 44.5571928,234.12305" id="Fill-231-Copy-3" fill="#0C4C3B"></path>
            <path d="M94.5621928,192.92105 C98.1901928,177.21705 102.425193,135.85605 104.032193,119.28905 C95.7221928,118.04605 94.3611928,127.89305 91.2291928,132.34605 C87.0951928,138.22405 81.1691928,144.14905 78.4111928,156.09505 C74.6431928,172.42205 74.0161928,180.15405 75.6931928,190.84905 C77.3711928,201.54505 73.8851928,210.73205 73.0581928,224.44005 C72.0191928,241.65005 74.5711928,244.70605 78.1471928,250.59105 C81.7241928,256.47505 80.1071928,261.17205 80.1071928,261.17205 L82.3461928,260.88205 C82.6771928,256.11705 83.2821928,249.67905 84.3511928,244.23105 C86.3241928,234.16305 89.9781928,212.76205 94.5621928,192.92105" id="Fill-232-Copy-4" fill="#00917A"></path>
            <path d="M88.3101928,251.20705 C92.6431928,248.15505 102.748193,250.64405 110.228193,241.28905 C121.055193,227.75105 120.284193,216.48005 118.996193,199.25805 C117.848193,183.89705 120.577193,184.51905 121.408193,166.03605 C122.238193,147.55305 118.820193,145.15005 115.456193,136.58405 C112.093193,128.01605 112.509193,121.66405 105.692193,119.65905 C105.109193,119.48805 104.558193,119.36805 104.032193,119.28905 C102.425193,135.85605 98.1901928,177.21705 94.5621928,192.92105 C89.9781928,212.76205 86.3241928,234.16305 84.3511928,244.23105 C83.2821928,249.67905 82.6771928,256.11705 82.3461928,260.88205 L84.8661928,260.55405 C84.8661928,260.55405 83.9771928,254.25905 88.3101928,251.20705" id="Fill-233-Copy-4" fill="#286B59"></path>
            <path d="M99.7461928,122.97105 C98.8751928,122.57505 98.0541928,122.09305 97.2281928,121.62505 C97.0031928,121.86705 96.7891928,122.12405 96.5821928,122.39105 C98.7981928,123.62705 101.027193,124.71705 103.415193,125.54305 C103.454193,125.15305 103.494193,124.76205 103.531193,124.38605 C102.250193,123.97105 100.977193,123.53205 99.7461928,122.97105" id="Fill-234-Copy-4" fill="#21594A"></path>
            <path d="M93.5271928,127.93505 C93.2961928,128.44205 93.0681928,128.94305 92.8401928,129.42805 C95.7481928,132.00505 98.8061928,134.31905 102.335193,136.04705 C102.382193,135.60105 102.428193,135.16205 102.474193,134.72405 C100.381193,133.30905 98.3001928,131.86805 96.3211928,130.31405 C95.3871928,129.58105 94.4811928,128.72105 93.5271928,127.93505" id="Fill-235-Copy-4" fill="#21594A"></path>
            <path d="M87.2371928,137.70705 C91.6081928,141.25705 96.2711928,144.66605 101.066193,147.68905 C101.145193,146.98505 101.225193,146.28205 101.302193,145.58505 C97.0891928,142.34905 92.5981928,139.33605 88.0671928,136.59505 C87.7931928,136.96005 87.5161928,137.33105 87.2371928,137.70705" id="Fill-236-Copy-4" fill="#21594A"></path>
            <path d="M82.1671928,145.70605 C87.9251928,150.24105 93.5941928,155.06305 99.7271928,159.14705 C99.8031928,158.53305 99.8761928,157.91705 99.9501928,157.30205 C94.2341928,153.10105 88.1891928,149.28005 82.4881928,145.07705 C82.3801928,145.28205 82.2741928,145.49605 82.1671928,145.70605" id="Fill-237-Copy-4" fill="#21594A"></path>
            <path d="M78.5161928,155.68505 C84.8041928,160.67805 91.5851928,165.31905 98.3791928,169.74205 C98.4501928,169.20905 98.5211928,168.66905 98.5921928,168.13105 C92.3071928,163.23605 85.6481928,158.57905 78.7661928,154.70505 C78.6811928,155.02905 78.5961928,155.35205 78.5161928,155.68505" id="Fill-238-Copy-4" fill="#21594A"></path>
            <path d="M76.4031928,165.57605 C76.3501928,165.86405 76.2991928,166.14705 76.2471928,166.42905 C81.3241928,172.45605 89.1181928,177.36105 96.8121928,180.64205 C96.8911928,180.14205 96.9691928,179.64205 97.0461928,179.13005 C94.3401928,177.70305 91.6601928,176.22805 89.0641928,174.61705 C84.6341928,171.86805 80.7571928,168.39305 76.4031928,165.57605" id="Fill-239-Copy-4" fill="#21594A"></path>
            <path d="M74.8271928,179.28105 C74.8211928,179.56705 74.8181928,179.85005 74.8161928,180.13405 C81.5961928,183.75705 88.0411928,188.03005 94.8491928,191.62705 C94.9711928,191.06005 95.0931928,190.47005 95.2161928,189.85205 C92.0141928,188.08605 88.7241928,186.44705 85.5171928,184.73805 C81.9951928,182.86105 78.4931928,180.88805 74.8271928,179.28105" id="Fill-240-Copy-4" fill="#21594A"></path>
            <path d="M75.8511928,192.06905 C81.2771928,195.40005 86.8911928,198.62105 92.7201928,201.19305 C92.8131928,200.75905 92.9071928,200.32405 93.0021928,199.88905 C87.3151928,196.82505 81.4541928,194.02505 75.7171928,191.03505 C75.7691928,191.38205 75.8091928,191.72505 75.8511928,192.06905" id="Fill-241-Copy-4" fill="#21594A"></path>
            <path d="M75.8151928,202.55705 C80.4831928,205.83005 85.3981928,208.89605 90.6251928,211.26305 C90.7281928,210.75005 90.8321928,210.23505 90.9371928,209.71905 C85.8441928,207.20905 80.7671928,204.69505 75.8881928,201.76305 C75.8621928,202.02805 75.8431928,202.29205 75.8151928,202.55705" id="Fill-242-Copy-4" fill="#21594A"></path>
            <path d="M74.5521928,211.56205 C78.8521928,215.01105 83.8521928,218.04705 88.8651928,220.21605 C88.9551928,219.75105 89.0451928,219.28605 89.1361928,218.81605 C84.3471928,215.93605 79.5531928,213.06105 74.7631928,210.18005 C74.6921928,210.63705 74.6221928,211.09805 74.5521928,211.56205" id="Fill-243-Copy-4" fill="#21594A"></path>
            <path d="M73.4791928,219.47805 C73.4551928,219.70605 73.4351928,219.94405 73.4111928,220.17605 C78.1421928,223.28205 82.2031928,226.93005 87.0881928,229.62205 C87.1681928,229.18805 87.2501928,228.75205 87.3331928,228.30805 C85.5801928,227.35605 83.8451928,226.37605 82.1641928,225.30105 C79.2181928,223.41505 76.5581928,221.14205 73.4791928,219.47805" id="Fill-244-Copy-4" fill="#21594A"></path>
            <path d="M72.8631928,228.75905 C72.8531928,229.09805 72.8481928,229.42705 72.8421928,229.75305 C76.3511928,232.94705 81.0971928,235.72805 85.6981928,237.10405 C85.7871928,236.62805 85.8781928,236.13905 85.9701928,235.64205 C83.8411928,234.73005 81.6741928,233.91505 79.6151928,232.82705 C77.2811928,231.59505 75.1051928,230.13205 72.8631928,228.75905" id="Fill-245-Copy-4" fill="#21594A"></path>
            <path d="M73.2361928,238.47805 C76.6201928,241.08305 80.2841928,243.50805 84.1321928,245.43205 C84.2041928,245.03105 84.2731928,244.62405 84.3511928,244.23105 C84.3751928,244.10405 84.4011928,243.96805 84.4271928,243.83705 C80.6101928,241.73405 76.8081928,239.64905 73.1001928,237.33805 C73.1411928,237.73105 73.1861928,238.11205 73.2361928,238.47805" id="Fill-246-Copy-4" fill="#21594A"></path>
            <circle id="Oval-Copy-34" fill="#333333" cx="57" cy="295" r="4"></circle>
            <circle id="Oval-Copy-35" fill="#333333" cx="83" cy="295" r="4"></circle>
            <ellipse id="Oval-Copy-10" stroke="#FCBEB5" fill="#FCBEB5" cx="85.5" cy="305" rx="3.5" ry="2"></ellipse>
            <ellipse id="Oval-Copy-9" stroke="#FCBEB5" fill="#FCBEB5" cx="53.5" cy="305" rx="3.5" ry="2"></ellipse>
            <circle id="Oval-Copy-25" stroke="#FFFFFF" fill="#FFFFFF" cx="59" cy="295" r="1"></circle>
            <circle id="Oval-Copy-24" stroke="#FFFFFF" fill="#FFFFFF" cx="85" cy="295" r="1"></circle>
            <path d="M59,311.318218 C64.2457274,315.605439 68.282125,317.74905 71.1091928,317.74905 C73.9362606,317.74905 77.602799,315.726628 82.1088081,311.681782" id="Line-Copy-9" stroke="#333333" stroke-width="2" stroke-linecap="round"></path>
        </g>
    </g>
</svg>