<?xml version="1.0" encoding="UTF-8"?>
<svg width="96px" height="293px" viewBox="0 0 96 293" version="1.1" xmlns="http://www.w3.org/2000/svg" xmlns:xlink="http://www.w3.org/1999/xlink">
    <!-- Generator: Sketch 55.1 (78136) - https://sketchapp.com -->
    <title>Group 31</title>
    <desc>Created with Sketch.</desc>
    <g id="Page-1" stroke="none" stroke-width="1" fill="none" fill-rule="evenodd">
        <g id="Group-31" transform="translate(0.667193, -0.018950)">
            <path d="M4.599,210.643 C4.891,211.779 9.864,284.848 9.864,284.848 C9.864,284.848 22.153,293.202 45.267,292.062 C68.381,290.921 75.109,282.493 75.109,282.493 C75.109,282.493 81.254,207.854 80.376,208.393 C79.498,208.932 42.53,212.491 42.53,212.491 L4.599,210.643" id="Fill-190-Copy-12" fill="#FCD783"></path>
            <path d="M75.109,282.493 C75.109,282.493 81.254,207.854 80.376,208.393 C79.891,208.692 68.342,209.915 58.128,210.948 L55.59,222.024 L54.514,291.118 C70.225,288.598 75.109,282.493 75.109,282.493" id="Fill-191-Copy-12" fill="#FCB924"></path>
            <path d="M80.434,208.533 C80.4,208.451 80.376,208.393 80.376,208.393 C79.498,208.932 42.53,212.491 42.53,212.491 L4.599,210.643 C4.656,210.868 4.899,213.936 5.251,218.697 C9.598,220.398 20.775,222.872 37.264,223.362 C64.016,224.155 73.144,221.094 80.059,217.642 C80.371,212.647 80.529,209.24 80.434,208.533" id="Fill-192-Copy-5" fill="#FCB924"></path>
            <path d="M5.68434189e-14,200.872 L1.024,213.399 C1.024,213.399 14.522,220.874 43.887,220.3 C69.393,219.802 83.59,212.923 83.59,212.923 L83.59,200.872 L5.68434189e-14,200.872" id="Fill-193-Copy-12" fill="#FCD783"></path>
            <path d="M83.59,200.872 L60.184,200.872 L50.909,205.444 C50.909,205.444 50.909,213.813 51.149,219.974 C72.069,218.5 83.59,212.923 83.59,212.923 L83.59,200.872" id="Fill-194-Copy-12" fill="#FCB924"></path>
            <path d="M77.035,204.276 C81.179,203.292 83.59,202.125 83.59,200.872 C83.59,197.373 64.877,194.537 41.795,194.537 C18.712,194.537 5.68434189e-14,197.373 5.68434189e-14,200.872 C5.68434189e-14,202.267 2.982,203.556 8.025,204.603 C15.495,201.669 28.351,199.731 42.965,199.731 C57.028,199.731 69.46,201.526 77.035,204.276" id="Fill-195-Copy-12" fill="#FCB924"></path>
            <path d="M77.035,204.276 C69.46,201.526 57.028,199.731 42.965,199.731 C28.351,199.731 15.495,201.669 8.025,204.603 C15.626,206.18 27.917,207.206 41.795,207.206 C56.608,207.206 69.612,206.036 77.035,204.276" id="Fill-196-Copy-12" fill="#333333"></path>
            <path d="M83.59,200.872 C83.59,198.125 72.048,195.787 55.915,194.909 C50.023,196.699 44.563,198.651 44.442,199.741 L44.442,199.742 C57.894,199.864 69.727,201.623 77.035,204.276 C81.179,203.292 83.59,202.125 83.59,200.872" id="Fill-197-Copy-12" fill="#FDE7B4"></path>
            <path d="M38.947,94.1545183 C39.518,75.4330452 35.621,17.0347411 34.454,0.142 C25.193,1.60055023 18.196,12.1959368 18.022,25.6879529 C17.816,41.7294465 12.948,54.922076 7.72,64.1416488 C2.49,73.3612216 -1.042,103.298178 7.726,114.801107 C16.492,126.30233 8.506,149.058273 8.102,159.363655 C7.698,169.669037 24.501,185.527146 28.813,191.079872 C33.127,196.633452 33.791,204.142 33.791,204.142 L36.194,204.020881 C36.713,195.006017 37.51,179.783358 37.564,170.409401 C37.647,156.432907 38.279,116.130008 38.947,94.1545183" id="Fill-218-Copy-4" fill="#DAFFAF"></path>
            <path d="M44.779,187.186554 C52.278,180.290457 75.763,179.685013 69.495,138.056875 C63.227,96.4295898 72.755,79.9128967 69.156,68.7744258 C65.559,57.6359548 57.059,36.0070941 52.691,22.5918112 C48.324,9.17738104 50.71,2.99417379 38.915,0.364328091 C37.034,-0.0552192766 35.204,-0.102972636 33.454,0.172461917 C34.621,17.060949 38.518,75.4445467 37.947,94.1613052 C37.279,116.131261 36.647,156.424011 36.564,170.396985 C36.51,179.768581 35.713,194.987406 35.194,204 L37.172,203.90023 C37.172,203.90023 37.279,194.083503 44.779,187.186554" id="Fill-219-Copy-4" fill="#B2D687"></path>
            <path d="M35.629,18.142 C35.581,17.3846627 35.533,16.6446359 35.486,15.91413 C33.897,14.9291587 32.334,13.9147595 30.826,12.8267903 C28.398,11.0758264 26.198,9.02798631 23.87,7.142 C23.503,7.63102353 23.148,8.13995421 22.81,8.67138862 C24.901,10.6811455 27.394,12.4909653 29.649,14.1337381 C31.568,15.5307009 33.556,16.8887149 35.629,18.142" id="Fill-220-Copy-4" fill="#8BA46C"></path>
            <path d="M36.467,31.5667514 C34.143,30.423768 31.831,29.263105 29.583,28.0069724 C25.724,25.8500663 22.081,23.4509503 18.354,21.142 C18.31,21.4867514 18.268,21.8332707 18.232,22.182442 C23.518,26.4909503 29.916,30.3044309 36.559,33.142 C36.528,32.6142652 36.498,32.0900663 36.467,31.5667514" id="Fill-221-Copy-4" fill="#8BA46C"></path>
            <path d="M37.443,48.3150078 C34.63,47.1386539 31.904,45.8148219 29.274,44.2281321 C25.087,41.7027882 21.212,38.8529927 17.201,36.142 C17.153,36.4777293 17.114,36.8186638 17.063,37.150923 C22.822,42.1556324 29.833,47.2522987 37.54,50.142 C37.508,49.5338701 37.476,48.9240052 37.443,48.3150078" id="Fill-222-Copy-4" fill="#8BA46C"></path>
            <path d="M36.834,64.142 C36.8113919,63.5957994 36.7878417,63.0469729 36.7652336,62.4955204 C32.6119325,60.4376398 28.4633414,58.4138967 24.5747438,55.9183554 C20.9621537,53.6005043 17.79419,50.6786814 14.364349,48.142 C14.191962,48.7503484 14.015807,49.3534448 13.834,49.9460374 C16.5997274,52.5816302 20.0550026,54.868845 23.0684774,56.8496974 C27.3282251,59.6507259 31.9299207,62.2933212 36.834,64.142" id="Fill-223-Copy-4" fill="#8BA46C"></path>
            <path d="M37.477,79.142 C37.4645766,78.6787074 37.4511976,78.211085 37.4368629,77.7374008 C31.7001266,75.149024 25.961479,72.7459642 20.6031781,69.5046479 C16.4585462,66.9976721 12.7955593,64.071568 9.10676999,61.142 C8.89748375,61.5732518 8.68819752,62.0001738 8.477,62.4167041 C11.7242814,65.3687873 15.4665868,67.9822771 19.1505978,70.3325128 C24.6828261,73.8621963 30.9203204,77.2446653 37.477,79.142" id="Fill-224-Copy-4" fill="#8BA46C"></path>
            <path d="M37.404,96.3620634 C32.2242526,94.0178184 27.0435467,91.6820211 22.0516658,89.0285892 C15.6785828,85.6410496 9.64864366,81.8581563 3.54585837,78.142 C3.49697474,78.4452735 3.44904962,78.748547 3.404,79.0560444 C13.1548457,86.7282724 25.1159982,93.5033516 37.3551164,98.142 C37.3714109,97.5371426 37.386747,96.9466463 37.404,96.3620634" id="Fill-225-Copy-4" fill="#8BA46C"></path>
            <path d="M37.394,109.388474 C24.5256554,106.138988 13.394,99.6408817 2.394,92.142 C2.39496805,92.5227111 2.40271249,92.8999534 2.40948887,93.2780628 C12.5498567,100.45347 24.375607,108.190838 37.3562459,111.142 C37.3678625,110.552288 37.3814153,109.970381 37.394,109.388474" id="Fill-226-Copy-4" fill="#8BA46C"></path>
            <path d="M37.369,126.290325 C32.6229895,125.161737 28.0153637,123.676091 23.5685371,121.592957 C16.9786967,118.50773 11.001842,114.472443 5.369,110.142 C5.57267889,110.663232 5.7890268,111.166522 6.01609465,111.652766 C14.3367184,119.294512 25.4523232,126.031952 37.3368402,128.142 C37.3475601,127.523878 37.3582801,126.90755 37.369,126.290325" id="Fill-227-Copy-4" fill="#8BA46C"></path>
            <path d="M36.66,142.250401 C33.2569683,141.534639 29.8891667,140.724179 26.5784948,139.627257 C21.3006536,137.880073 16.5569759,135.513404 11.7466469,133.142 C11.7237949,133.611546 11.6942779,134.083459 11.66,134.556162 C18.4936761,139.164814 27.6820521,142.616568 36.6295308,144.142 C36.6390524,143.515413 36.6495262,142.885669 36.66,142.250401" id="Fill-228-Copy-4" fill="#8BA46C"></path>
            <path d="M36.9705621,159.142 C36.9773833,158.557172 36.9842044,157.963167 36.992,157.354979 C33.547327,156.297116 30.1123984,155.21923 26.7758891,153.934444 C23.1636111,152.54287 19.6400078,150.978601 16.3444253,149.114826 C14.2172057,147.911799 12.2916968,146.48018 10.2911555,145.142 C10.1927362,145.730999 10.0933426,146.314159 9.992,146.890644 C13.8888168,150.282814 19.4870195,152.805667 24.1692412,154.737018 C28.3009,156.441446 32.5865214,157.918116 36.9705621,159.142" id="Fill-229-Copy-4" fill="#8BA46C"></path>
            <path d="M36.1426793,174.142 C36.1560262,173.460214 36.1674665,172.79853 36.177,172.156947 C32.8517021,171.322723 29.5473779,170.42903 26.2983483,169.33432 C19.7869421,167.139874 13.8942625,164.43702 8.177,161.142 C8.25994178,161.887442 8.41057167,162.653823 8.63079639,163.43863 C12.6911301,166.617227 19.0585798,168.575477 23.5746166,170.2322 C27.6196966,171.716383 31.8344736,173.094194 36.1426793,174.142" id="Fill-230-Copy-4" fill="#8BA46C"></path>
            <path d="M17.89,178.142 C18.354769,178.76674 18.8204713,179.384481 19.2861736,179.990846 C24.5936864,182.355059 30.1783808,184.436652 35.8172049,186.142 C35.8414699,185.51026 35.865735,184.881145 35.89,184.251155 C29.9039991,182.177437 23.8955996,180.141344 17.89,178.142" id="Fill-231-Copy-4" fill="#8BA46C"></path>
            <path d="M67.895,136.94 C71.523,121.236 75.758,79.875 77.365,63.308 C69.055,62.065 67.694,71.912 64.562,76.365 C60.428,82.243 54.502,88.168 51.744,100.114 C47.976,116.441 47.349,124.173 49.026,134.868 C50.704,145.564 47.218,154.751 46.391,168.459 C45.352,185.669 47.904,188.725 51.48,194.61 C55.057,200.494 53.44,205.191 53.44,205.191 L55.679,204.901 C56.01,200.136 56.615,193.698 57.684,188.25 C59.657,178.182 63.311,156.781 67.895,136.94" id="Fill-232-Copy-5" fill="#DAFFAF"></path>
            <path d="M61.643,195.226 C65.976,192.174 76.081,194.663 83.561,185.308 C94.388,171.77 93.617,160.499 92.329,143.277 C91.181,127.916 93.91,128.538 94.741,110.055 C95.571,91.572 92.153,89.169 88.789,80.603 C85.426,72.035 85.842,65.683 79.025,63.678 C78.442,63.507 77.891,63.387 77.365,63.308 C75.758,79.875 71.523,121.236 67.895,136.94 C63.311,156.781 59.657,178.182 57.684,188.25 C56.615,193.698 56.01,200.136 55.679,204.901 L58.199,204.573 C58.199,204.573 57.31,198.278 61.643,195.226" id="Fill-233-Copy-5" fill="#B2D687"></path>
            <path d="M73.079,66.99 C72.208,66.594 71.387,66.112 70.561,65.644 C70.336,65.886 70.122,66.143 69.915,66.41 C72.131,67.646 74.36,68.736 76.748,69.562 C76.787,69.172 76.827,68.781 76.864,68.405 C75.583,67.99 74.31,67.551 73.079,66.99" id="Fill-234-Copy-5" fill="#8BA46C"></path>
            <path d="M66.86,71.954 C66.629,72.461 66.401,72.962 66.173,73.447 C69.081,76.024 72.139,78.338 75.668,80.066 C75.715,79.62 75.761,79.181 75.807,78.743 C73.714,77.328 71.633,75.887 69.654,74.333 C68.72,73.6 67.814,72.74 66.86,71.954" id="Fill-235-Copy-5" fill="#8BA46C"></path>
            <path d="M60.57,81.726 C64.941,85.276 69.604,88.685 74.399,91.708 C74.478,91.004 74.558,90.301 74.635,89.604 C70.422,86.368 65.931,83.355 61.4,80.614 C61.126,80.979 60.849,81.35 60.57,81.726" id="Fill-236-Copy-5" fill="#8BA46C"></path>
            <path d="M55.5,89.725 C61.258,94.26 66.927,99.082 73.06,103.166 C73.136,102.552 73.209,101.936 73.283,101.321 C67.567,97.12 61.522,93.299 55.821,89.096 C55.713,89.301 55.607,89.515 55.5,89.725" id="Fill-237-Copy-5" fill="#8BA46C"></path>
            <path d="M51.849,99.704 C58.137,104.697 64.918,109.338 71.712,113.761 C71.783,113.228 71.854,112.688 71.925,112.15 C65.64,107.255 58.981,102.598 52.099,98.724 C52.014,99.048 51.929,99.371 51.849,99.704" id="Fill-238-Copy-5" fill="#8BA46C"></path>
            <path d="M49.736,109.595 C49.683,109.883 49.632,110.166 49.58,110.448 C54.657,116.475 62.451,121.38 70.145,124.661 C70.224,124.161 70.302,123.661 70.379,123.149 C67.673,121.722 64.993,120.247 62.397,118.636 C57.967,115.887 54.09,112.412 49.736,109.595" id="Fill-239-Copy-5" fill="#8BA46C"></path>
            <path d="M48.16,123.3 C48.154,123.586 48.151,123.869 48.149,124.153 C54.929,127.776 61.374,132.049 68.182,135.646 C68.304,135.079 68.426,134.489 68.549,133.871 C65.347,132.105 62.057,130.466 58.85,128.757 C55.328,126.88 51.826,124.907 48.16,123.3" id="Fill-240-Copy-5" fill="#8BA46C"></path>
            <path d="M49.184,136.088 C54.61,139.419 60.224,142.64 66.053,145.212 C66.146,144.778 66.24,144.343 66.335,143.908 C60.648,140.844 54.787,138.044 49.05,135.054 C49.102,135.401 49.142,135.744 49.184,136.088" id="Fill-241-Copy-5" fill="#8BA46C"></path>
            <path d="M49.148,146.576 C53.816,149.849 58.731,152.915 63.958,155.282 C64.061,154.769 64.165,154.254 64.27,153.738 C59.177,151.228 54.1,148.714 49.221,145.782 C49.195,146.047 49.176,146.311 49.148,146.576" id="Fill-242-Copy-5" fill="#8BA46C"></path>
            <path d="M47.885,155.581 C52.185,159.03 57.185,162.066 62.198,164.235 C62.288,163.77 62.378,163.305 62.469,162.835 C57.68,159.955 52.886,157.08 48.096,154.199 C48.025,154.656 47.955,155.117 47.885,155.581" id="Fill-243-Copy-5" fill="#8BA46C"></path>
            <path d="M46.812,163.497 C46.788,163.725 46.768,163.963 46.744,164.195 C51.475,167.301 55.536,170.949 60.421,173.641 C60.501,173.207 60.583,172.771 60.666,172.327 C58.913,171.375 57.178,170.395 55.497,169.32 C52.551,167.434 49.891,165.161 46.812,163.497" id="Fill-244-Copy-5" fill="#8BA46C"></path>
            <path d="M46.196,172.778 C46.186,173.117 46.181,173.446 46.175,173.772 C49.684,176.966 54.43,179.747 59.031,181.123 C59.12,180.647 59.211,180.158 59.303,179.661 C57.174,178.749 55.007,177.934 52.948,176.846 C50.614,175.614 48.438,174.151 46.196,172.778" id="Fill-245-Copy-5" fill="#8BA46C"></path>
            <path d="M46.569,182.497 C49.953,185.102 53.617,187.527 57.465,189.451 C57.537,189.05 57.606,188.643 57.684,188.25 C57.708,188.123 57.734,187.987 57.76,187.856 C53.943,185.753 50.141,183.668 46.433,181.357 C46.474,181.75 46.519,182.131 46.569,182.497" id="Fill-246-Copy-5" fill="#8BA46C"></path>
            <circle id="Oval-Copy-36" fill="#333333" cx="30.3328072" cy="239.01895" r="4"></circle>
            <circle id="Oval-Copy-37" fill="#333333" cx="56.3328072" cy="239.01895" r="4"></circle>
            <circle id="Oval-Copy-25" stroke="#FFFFFF" fill="#FFFFFF" cx="28.3328072" cy="238.01895" r="1"></circle>
            <circle id="Oval-Copy-24" stroke="#FFFFFF" fill="#FFFFFF" cx="54.3328072" cy="238.01895" r="1"></circle>
            <path d="M31.3328072,255.907082 C35.9222781,253.314994 39.6305475,252.01895 42.4576153,252.01895 C45.2846831,252.01895 49.2793497,253.436182 54.4416153,256.270647" id="Line-Copy-12" stroke="#333333" stroke-width="2" stroke-linecap="round"></path>
        </g>
    </g>
</svg>