<svg width="228" height="349" viewBox="0 0 228 349" fill="none" xmlns="http://www.w3.org/2000/svg">
<path fill-rule="evenodd" clip-rule="evenodd" d="M73.4195 267.36C73.7115 268.498 78.6845 341.669 78.6845 341.669C78.6845 341.669 90.9735 350.035 114.088 348.893C137.202 347.75 143.929 339.311 143.929 339.311C143.929 339.311 150.074 264.567 149.196 265.107C148.318 265.647 111.35 269.211 111.35 269.211L73.4195 267.36Z" fill="#FCD783"/>
<path fill-rule="evenodd" clip-rule="evenodd" d="M143.929 339.311C143.929 339.311 150.074 264.567 149.196 265.107C148.711 265.406 137.162 266.631 126.948 267.665L124.41 278.757L123.334 347.948C139.045 345.424 143.929 339.311 143.929 339.311Z" fill="#FCB924"/>
<path fill-rule="evenodd" clip-rule="evenodd" d="M149.254 265.247C149.22 265.165 149.196 265.107 149.196 265.107C148.318 265.647 111.35 269.211 111.35 269.211L73.4195 267.36C73.4765 267.585 73.7195 270.658 74.0715 275.425C78.4185 277.129 89.5955 279.606 106.084 280.097C132.836 280.891 141.964 277.826 148.879 274.369C149.191 269.367 149.349 265.955 149.254 265.247Z" fill="#FCB924"/>
<path fill-rule="evenodd" clip-rule="evenodd" d="M68.8205 257.575L69.8445 270.12C69.8445 270.12 83.3425 277.605 112.707 277.031C138.213 276.532 152.41 269.643 152.41 269.643V257.575H68.8205Z" fill="#FCD783"/>
<path fill-rule="evenodd" clip-rule="evenodd" d="M152.41 257.575H129.004L119.729 262.154C119.729 262.154 119.729 270.534 119.969 276.704C140.889 275.228 152.41 269.643 152.41 269.643V257.575Z" fill="#FCB924"/>
<path fill-rule="evenodd" clip-rule="evenodd" d="M145.855 260.984C149.999 259.999 152.41 258.83 152.41 257.575C152.41 254.071 133.698 251.232 110.616 251.232C87.5325 251.232 68.8205 254.071 68.8205 257.575C68.8205 258.972 71.8025 260.263 76.8455 261.312C84.3155 258.373 97.1715 256.433 111.785 256.433C125.848 256.433 138.28 258.23 145.855 260.984Z" fill="#FCB924"/>
<path fill-rule="evenodd" clip-rule="evenodd" d="M145.855 260.984C138.28 258.23 125.848 256.433 111.785 256.433C97.1715 256.433 84.3155 258.373 76.8455 261.312C84.4465 262.891 96.7375 263.918 110.615 263.918C125.428 263.918 138.432 262.747 145.855 260.984Z" fill="#333333"/>
<path fill-rule="evenodd" clip-rule="evenodd" d="M152.41 257.575C152.41 254.825 140.868 252.483 124.735 251.604C118.843 253.397 113.383 255.351 113.262 256.443V256.444C126.714 256.566 138.547 258.327 145.855 260.984C149.999 259.999 152.41 258.83 152.41 257.575Z" fill="#FDE7B4"/>
<path fill-rule="evenodd" clip-rule="evenodd" d="M90.8295 212.535C90.8645 199.811 87.9165 119.627 85.1955 97.0427C82.4755 74.4571 70.6755 32.134 65.4885 12.5326C63.9685 6.79161 62.5485 2.94724 61.2975 0.368638C55.9485 0.0261597 53.2815 14.255 52.0855 29.8388C50.8645 45.76 41.9205 50.1922 44.1445 66.9506C46.3705 83.71 56.5165 97.5343 56.5415 112.712C56.5665 127.889 36.9455 167.295 43.4895 188.09C50.0335 208.884 72.7285 226.709 79.3075 234.776C85.8875 242.842 89.4565 260.923 89.4565 260.923C89.4565 260.923 90.8615 261.412 92.1215 261.644C91.3525 257.81 90.4215 252.818 89.8175 248.402C88.6355 239.746 90.7945 225.259 90.8295 212.535Z" fill="#286B59"/>
<path fill-rule="evenodd" clip-rule="evenodd" d="M94.0755 261.351C94.2255 260.222 90.1975 236.373 94.8365 229.101C107.105 209.864 107.642 125.449 97.9375 77.8799C88.2325 30.3115 68.5825 1.64241 61.6465 0.400674C61.5285 0.379645 61.4135 0.375639 61.2975 0.368629C62.5485 2.94723 63.9685 6.7916 65.4885 12.5326C70.6755 32.134 82.4755 74.4571 85.1955 97.0427C87.9165 119.627 90.8645 199.811 90.8295 212.535C90.7945 225.259 88.6355 239.746 89.8175 248.402C90.4215 252.818 91.3525 257.81 92.1215 261.644C93.1095 261.824 94.0085 261.847 94.0755 261.351Z" fill="#00917A"/>
<path fill-rule="evenodd" clip-rule="evenodd" d="M68.3143 22.8325C68.1703 22.3338 68.0263 21.8431 67.8843 21.3784C65.1253 20.6935 62.3513 20.0326 59.5763 19.3897C59.4313 19.7962 59.2913 20.2228 59.1533 20.6624C62.0413 21.8501 65.2683 22.6292 68.3143 22.8325Z" fill="#0C4C3B"/>
<path fill-rule="evenodd" clip-rule="evenodd" d="M69.7903 29.1713C69.6413 28.6115 69.4933 28.0628 69.3483 27.52C68.0083 27.3808 66.6673 27.2376 65.3313 27.0654C62.1673 26.6578 58.4343 26.4675 55.2813 25.3981C55.2383 25.6885 55.1943 25.9779 55.1533 26.2723C57.3313 27.1535 59.7143 27.5671 62.0383 28.0117C64.5983 28.5004 67.1883 28.911 69.7903 29.1713Z" fill="#0C4C3B"/>
<path fill-rule="evenodd" clip-rule="evenodd" d="M72.0785 37.2957C71.9475 36.798 71.8175 36.3013 71.6885 35.8086C64.9755 35.7956 57.7395 35.7636 51.6215 33.6186C51.5785 33.8729 51.5345 34.1253 51.4875 34.3726C57.7845 36.9182 65.1535 37.52 72.0785 37.2957Z" fill="#0C4C3B"/>
<path fill-rule="evenodd" clip-rule="evenodd" d="M75.3225 49.9003C75.1585 49.2474 74.9935 48.5945 74.8285 47.9436C71.2135 47.547 67.5895 47.2236 63.9855 46.7619C61.3965 46.4315 58.8135 46.054 56.2325 45.6694C53.9095 45.3229 50.7965 45.2518 48.4195 44.2344C48.2915 44.5449 48.1645 44.8533 48.0365 45.1607C51.1125 46.9352 55.4395 47.2376 58.6465 47.8044C64.1245 48.7728 69.7285 49.6239 75.3225 49.9003Z" fill="#0C4C3B"/>
<path fill-rule="evenodd" clip-rule="evenodd" d="M78.5785 63.1929C78.4165 62.5069 78.2525 61.82 78.0875 61.132C72.7775 60.9588 67.4595 60.9608 62.1585 60.4391C55.9485 59.8262 50.0665 58.4553 44.2355 56.5676C44.1575 57.0253 44.0895 57.4949 44.0305 57.9716C54.3505 62.6842 67.1235 63.7206 78.5785 63.1929Z" fill="#0C4C3B"/>
<path fill-rule="evenodd" clip-rule="evenodd" d="M81.9655 78.3591C81.8225 77.6681 81.6765 76.9731 81.5275 76.2711C69.4745 74.0791 57.1075 73.5263 44.9925 71.7098C45.1165 72.2706 45.2485 72.8293 45.3865 73.3841C50.6915 74.9113 56.8785 75.0605 62.0455 75.7825C68.6375 76.7038 75.3045 77.8223 81.9655 78.3591Z" fill="#0C4C3B"/>
<path fill-rule="evenodd" clip-rule="evenodd" d="M67.4535 89.5247C72.8675 89.797 78.5975 90.0774 84.0895 89.5387C83.9645 88.7956 83.8355 88.0426 83.6975 87.2755C78.3555 87.3006 73.0045 87.6581 67.6505 87.4488C61.6035 87.2114 55.5905 86.5044 49.5545 86.174C49.7005 86.5595 49.8455 86.9441 49.9925 87.3276C55.6905 88.6905 61.6145 89.2303 67.4535 89.5247Z" fill="#0C4C3B"/>
<path fill-rule="evenodd" clip-rule="evenodd" d="M54.7535 100.967C54.9635 101.728 55.1615 102.49 55.3405 103.253C65.0055 106.292 76.5885 106.298 85.8805 103.834C85.8245 103.199 85.7685 102.576 85.7135 101.979C79.4035 102.851 73.1595 103.558 66.7505 103.086C62.6305 102.782 58.6945 101.905 54.7535 100.967Z" fill="#0C4C3B"/>
<path fill-rule="evenodd" clip-rule="evenodd" d="M56.4885 114.171C56.4555 114.663 56.4035 115.178 56.3385 115.708C60.5615 117.216 65.4105 117.381 69.8025 117.461C75.3885 117.562 81.2385 117.223 86.7975 116.029C86.7475 115.27 86.6965 114.522 86.6455 113.787C76.7925 115.338 65.9835 116.943 56.4885 114.171Z" fill="#0C4C3B"/>
<path fill-rule="evenodd" clip-rule="evenodd" d="M55.2215 121.717C55.0975 122.246 54.9685 122.783 54.8315 123.332C60.4965 124.997 66.4025 126.133 72.1485 127.052C76.9925 127.827 82.5415 128.523 87.4965 127.375C87.4465 126.511 87.3965 125.654 87.3465 124.808C76.5015 126.485 65.9635 123.819 55.2215 121.717Z" fill="#0C4C3B"/>
<path fill-rule="evenodd" clip-rule="evenodd" d="M52.5345 131.622C52.3705 132.178 52.2055 132.736 52.0365 133.302C59.9285 133.516 67.4045 134.141 75.2545 136.473C79.5825 137.759 83.8525 139.253 88.1955 140.4C88.1515 139.532 88.1075 138.667 88.0625 137.807C76.3435 134.519 64.5995 130.4 52.5345 131.622Z" fill="#0C4C3B"/>
<path fill-rule="evenodd" clip-rule="evenodd" d="M69.3325 146.627C62.8205 145.358 56.1325 143.013 49.4255 141.969C49.2295 142.625 49.0335 143.284 48.8375 143.947C55.9645 146.12 63.3495 147.991 70.5455 149.409C76.3015 150.543 82.7315 151.254 88.6685 150.133C88.6255 149.222 88.5825 148.312 88.5395 147.404C82.1415 148.094 75.9145 147.912 69.3325 146.627Z" fill="#0C4C3B"/>
<path fill-rule="evenodd" clip-rule="evenodd" d="M46.4865 152.216C46.3635 152.675 46.2375 153.134 46.1175 153.592C56.5255 154.997 65.7705 159.75 76.1435 161.898C80.3425 162.768 84.9535 163.024 89.2055 162.162C89.1715 161.38 89.1375 160.596 89.1035 159.81C75.3755 162.623 60.8795 152.281 46.4865 152.216Z" fill="#0C4C3B"/>
<path fill-rule="evenodd" clip-rule="evenodd" d="M89.7935 176.696C89.7545 175.695 89.7145 174.683 89.6745 173.662C89.4215 173.598 89.1675 173.533 88.9115 173.465C84.0795 172.19 79.2355 170.976 74.3405 169.948C64.3545 167.85 53.6815 165.847 43.3745 165.857C43.3105 166.214 43.2435 166.572 43.1845 166.928C55.3105 169.351 67.5815 170.76 79.6315 173.739C82.4205 174.428 86.0545 175.769 89.7935 176.696Z" fill="#0C4C3B"/>
<path fill-rule="evenodd" clip-rule="evenodd" d="M90.2625 189.757C90.2345 188.933 90.2065 188.096 90.1765 187.246C82.2815 187.446 74.4045 187.996 66.4995 187.072C57.9785 186.077 50.3425 182.357 42.2185 180.319C42.2495 180.956 42.2905 181.586 42.3495 182.204C50.0325 185.529 57.8825 188.499 66.2585 189.588C74.0905 190.606 82.2985 190.643 90.2625 189.757Z" fill="#0C4C3B"/>
<path fill-rule="evenodd" clip-rule="evenodd" d="M90.7475 206.527C90.7315 205.79 90.7135 205.009 90.6925 204.185C84.3125 204.892 77.0955 203.12 71.2525 202.205C66.6995 201.491 62.1605 200.696 57.6345 199.83C54.4015 199.211 50.9375 198.741 47.7085 197.755C48.0335 198.345 48.3685 198.931 48.7135 199.514C50.3735 200.058 52.1065 200.462 53.8385 200.887C59.5265 202.283 65.2585 203.488 71.0375 204.462C76.6425 205.409 84.2965 207.456 90.7475 206.527Z" fill="#0C4C3B"/>
<path fill-rule="evenodd" clip-rule="evenodd" d="M90.5355 221.441C90.5825 220.593 90.6245 219.745 90.6615 218.897C85.5225 218.124 80.5795 216.325 75.4655 214.521C70.2365 212.677 63.2205 210.164 57.4995 211.745C57.9595 212.296 58.4225 212.841 58.8865 213.381C62.1505 213.514 65.2735 213.671 68.6335 214.616C72.8745 215.81 76.8935 217.608 81.0425 219.056C84.1155 220.13 87.3215 221.066 90.5355 221.441Z" fill="#0C4C3B"/>
<path fill-rule="evenodd" clip-rule="evenodd" d="M89.6985 234.884C86.9115 233.566 84.2365 232.032 81.4865 230.638C78.2695 229.006 74.9435 227.414 71.4475 226.597C72.6045 227.745 73.6965 228.827 74.7035 229.841C78.5765 231.576 82.2745 233.648 86.1825 235.744C87.2705 236.328 88.4065 236.914 89.5745 237.467C89.6095 236.621 89.6505 235.761 89.6985 234.884Z" fill="#0C4C3B"/>
<path fill-rule="evenodd" clip-rule="evenodd" d="M77.6899 212.032C75.9562 199.428 61.8931 120.435 56.0598 98.4492C50.2273 76.4626 32.6602 36.1959 24.7995 17.5082C22.4964 12.0349 20.5559 8.42581 18.9587 6.04665C13.6142 6.45298 12.9506 20.9151 13.9321 36.5139C14.9357 52.4503 6.69472 58.0859 11.2261 74.3713C15.7597 90.6573 27.7282 102.933 29.8623 117.959C31.9963 132.985 18.0429 174.742 27.4133 194.423C36.7835 214.102 61.7349 228.591 69.3711 235.663C77.0081 242.734 83.0551 260.14 83.0551 260.14C83.0551 260.14 84.5145 260.43 85.7944 260.483C84.5001 256.794 82.8844 251.98 81.6725 247.691C79.299 239.284 79.4236 224.637 77.6899 212.032Z" fill="#286B59"/>
<path fill-rule="evenodd" clip-rule="evenodd" d="M87.6888 259.921C87.6803 258.782 80.3771 235.727 83.9603 227.879C93.4364 207.119 82.2363 123.451 66.0146 77.6971C49.793 31.9442 26.3499 6.29274 19.3088 6.02975C19.189 6.02537 19.0746 6.03743 18.9587 6.04665C20.5559 8.42581 22.4964 12.0349 24.7995 17.5082C32.6602 36.1959 50.2274 76.4626 56.0598 98.4492C61.8931 120.435 75.9563 199.428 77.6899 212.032C79.4236 224.637 79.299 239.284 81.6726 247.691C82.8844 251.98 84.5001 256.794 85.7944 260.483C86.7978 260.524 87.6913 260.421 87.6888 259.921Z" fill="#00917A"/>
<path fill-rule="evenodd" clip-rule="evenodd" d="M29.0292 27.3134C28.8173 26.8397 28.6065 26.3738 28.4013 25.9335C25.5739 25.6397 22.7351 25.3718 19.8977 25.1219C19.8107 25.5448 19.7313 25.9867 19.6557 26.4413C22.6807 27.2149 25.9846 27.5367 29.0292 27.3134Z" fill="#0C4C3B"/>
<path fill-rule="evenodd" clip-rule="evenodd" d="M31.3718 33.3849C31.1464 32.8513 30.9236 32.3286 30.7046 31.8113C29.3583 31.8602 28.0104 31.9053 26.6635 31.9209C23.4736 31.9583 19.7505 32.2901 16.4796 31.6705C16.4773 31.964 16.474 32.2567 16.4743 32.554C18.7536 33.1231 21.1709 33.2006 23.5341 33.317C26.1371 33.4441 28.7589 33.4897 31.3718 33.3849Z" fill="#0C4C3B"/>
<path fill-rule="evenodd" clip-rule="evenodd" d="M34.7668 41.1114C34.5679 40.6368 34.3702 40.163 34.174 39.6931C27.5245 40.6158 20.3544 41.5925 13.9979 40.321C13.9906 40.5789 13.9821 40.835 13.97 41.0864C20.5595 42.7296 27.9404 42.2986 34.7668 41.1114Z" fill="#0C4C3B"/>
<path fill-rule="evenodd" clip-rule="evenodd" d="M39.731 53.1412C39.4779 52.5175 39.2237 51.8939 38.9699 51.2723C35.335 51.3835 31.7013 51.5682 28.0682 51.6133C25.4585 51.6469 22.8481 51.6331 20.2388 51.612C17.8903 51.5926 14.7977 51.9561 12.3024 51.2798C12.2188 51.6051 12.1359 51.9282 12.0519 52.2505C15.3445 53.579 19.6715 53.2754 22.926 53.3897C28.4853 53.5852 34.1531 53.6471 39.731 53.1412Z" fill="#0C4C3B"/>
<path fill-rule="evenodd" clip-rule="evenodd" d="M44.8027 65.8506C44.547 65.1939 44.2891 64.5365 44.0301 63.8782C38.7477 64.4467 33.4817 65.1898 28.1598 65.412C21.9251 65.6705 15.9098 65.1327 9.87317 64.0761C9.85953 64.5402 9.85747 65.0147 9.86529 65.495C20.7398 68.7234 33.5325 67.9696 44.8027 65.8506Z" fill="#0C4C3B"/>
<path fill-rule="evenodd" clip-rule="evenodd" d="M50.2645 80.3971C50.0269 79.7328 49.7857 79.065 49.5406 78.3906C37.3003 77.8996 24.9768 79.0758 12.7272 78.9654C12.928 79.5034 13.1363 80.0384 13.3501 80.5685C18.8157 81.3414 24.9632 80.6269 30.1803 80.6218C36.8362 80.6154 43.5938 80.7939 50.2645 80.3971Z" fill="#0C4C3B"/>
<path fill-rule="evenodd" clip-rule="evenodd" d="M37.4455 93.4766C42.8447 92.9918 48.5579 92.4709 53.9216 91.1719C53.6945 90.4535 53.4621 89.7258 53.2189 88.9854C47.9323 89.7547 42.6831 90.8545 37.3521 91.3934C31.331 92.0012 25.2783 92.1391 19.2551 92.653C19.4532 93.0145 19.6503 93.3751 19.8491 93.7344C25.6811 94.2899 31.6225 93.9988 37.4455 93.4766Z" fill="#0C4C3B"/>
<path fill-rule="evenodd" clip-rule="evenodd" d="M26.4593 106.577C26.773 107.302 27.075 108.029 27.3583 108.759C37.3517 110.422 48.8228 108.814 57.6818 105.078C57.5382 104.457 57.3961 103.848 57.2587 103.265C51.1314 105.008 45.0464 106.578 38.6341 107.004C34.512 107.277 30.4924 106.957 26.4593 106.577Z" fill="#0C4C3B"/>
<path fill-rule="evenodd" clip-rule="evenodd" d="M30.0126 119.411C30.0482 119.903 30.0683 120.42 30.0777 120.954C34.4692 121.859 39.2938 121.346 43.6542 120.813C49.1999 120.135 54.9459 118.985 60.2848 117.027C60.1298 116.282 59.9753 115.548 59.8227 114.828C50.2811 117.737 39.8004 120.833 30.0126 119.411Z" fill="#0C4C3B"/>
<path fill-rule="evenodd" clip-rule="evenodd" d="M29.8066 127.06C29.7574 127.602 29.7043 128.151 29.6449 128.714C35.4862 129.573 41.4925 129.875 47.3104 129.984C52.2149 130.077 57.8067 129.993 62.5538 128.165C62.3843 127.317 62.2157 126.475 62.0486 125.644C51.5422 128.817 40.7362 127.644 29.8066 127.06Z" fill="#0C4C3B"/>
<path fill-rule="evenodd" clip-rule="evenodd" d="M28.5224 137.244C28.4373 137.817 28.3514 138.392 28.2627 138.976C36.1076 138.089 43.5977 137.666 51.6955 138.881C56.16 139.551 60.5961 140.436 65.0562 140.966C64.892 140.112 64.7283 139.262 64.5642 138.417C52.5022 136.794 40.3001 134.352 28.5224 137.244Z" fill="#0C4C3B"/>
<path fill-rule="evenodd" clip-rule="evenodd" d="M47.2423 149.762C40.6172 149.412 33.6685 148.023 26.8816 147.923C26.7787 148.6 26.6762 149.28 26.5742 149.963C33.9339 151.122 41.5071 151.946 48.8301 152.348C54.6877 152.668 61.1539 152.476 66.8774 150.539C66.7082 149.642 66.5391 148.747 66.3703 147.853C60.1306 149.429 53.9388 150.117 47.2423 149.762Z" fill="#0C4C3B"/>
<path fill-rule="evenodd" clip-rule="evenodd" d="M25.3954 158.48C25.3373 158.951 25.2763 159.423 25.2212 159.894C35.7232 159.835 45.5387 163.253 56.1093 163.934C60.3884 164.211 64.9901 163.822 69.0809 162.376C68.9385 161.606 68.7959 160.834 68.653 160.06C55.4495 164.759 39.6574 156.539 25.3954 158.48Z" fill="#0C4C3B"/>
<path fill-rule="evenodd" clip-rule="evenodd" d="M71.6832 176.686C71.5054 175.7 71.325 174.703 71.1436 173.698C70.8842 173.67 70.6236 173.641 70.3606 173.609C65.3985 173.02 60.4329 172.494 55.4427 172.157C45.2623 171.472 34.4148 170.976 24.2095 172.422C24.1957 172.784 24.1791 173.148 24.1701 173.509C36.5149 174.219 48.8623 173.904 61.2091 175.174C64.0667 175.468 67.8517 176.289 71.6832 176.686Z" fill="#0C4C3B"/>
<path fill-rule="evenodd" clip-rule="evenodd" d="M73.9627 189.554C73.8204 188.742 73.6765 187.918 73.5286 187.08C65.7383 188.379 58.0143 190.021 50.0578 190.207C41.4814 190.409 33.4028 187.791 25.0747 186.905C25.1939 187.531 25.322 188.149 25.4663 188.753C33.5366 190.974 41.723 192.821 50.1689 192.733C58.0661 192.649 66.1994 191.542 73.9627 189.554Z" fill="#0C4C3B"/>
<path fill-rule="evenodd" clip-rule="evenodd" d="M76.7737 206.094C76.6554 205.366 76.529 204.595 76.3937 203.782C70.1741 205.371 62.7811 204.623 56.8677 204.531C52.2598 204.458 47.6545 204.304 43.0522 204.077C39.7646 203.914 36.269 203.932 32.9344 203.405C33.3382 203.944 33.7515 204.478 34.1741 205.008C35.8936 205.315 37.6658 205.473 39.4401 205.653C45.2667 206.242 51.1104 206.637 56.9685 206.796C62.6505 206.952 70.5146 207.913 76.7737 206.094Z" fill="#0C4C3B"/>
<path fill-rule="evenodd" clip-rule="evenodd" d="M78.6365 220.892C78.5651 220.046 78.4888 219.2 78.4077 218.356C73.2113 218.306 68.0663 217.213 62.7514 216.14C57.317 215.042 50.0201 213.532 44.5745 215.895C45.1066 216.376 45.6408 216.851 46.1753 217.321C49.426 216.998 52.5405 216.719 55.9991 217.186C60.3648 217.777 64.5945 218.997 68.9043 219.853C72.0968 220.489 75.4017 220.969 78.6365 220.892Z" fill="#0C4C3B"/>
<path fill-rule="evenodd" clip-rule="evenodd" d="M79.6758 234.321C76.7328 233.404 73.8706 232.258 70.9537 231.261C67.5411 230.093 64.0263 228.98 60.4508 228.658C61.756 229.634 62.9879 230.553 64.1259 231.417C68.2024 232.595 72.1524 234.132 76.3136 235.663C77.4722 236.089 78.6785 236.511 79.9121 236.897C79.8292 236.054 79.7502 235.196 79.6758 234.321Z" fill="#0C4C3B"/>
<path fill-rule="evenodd" clip-rule="evenodd" d="M107.767 150.709C108.338 131.961 104.441 73.481 103.274 56.5646C94.0135 58.0252 87.0165 68.6354 86.8425 82.1463C86.6365 98.2103 81.7685 111.421 76.5405 120.654C71.3105 129.886 67.7785 159.865 76.5465 171.384C85.3125 182.901 77.3265 205.689 76.9225 216.009C76.5185 226.329 93.3215 242.209 97.6335 247.77C101.947 253.331 102.611 260.85 102.611 260.85L105.014 260.729C105.533 251.701 106.33 236.457 106.384 227.07C106.467 213.074 107.099 172.715 107.767 150.709Z" fill="#21594A"/>
<path fill-rule="evenodd" clip-rule="evenodd" d="M113.599 243.871C121.098 236.965 144.583 236.359 138.315 194.672C132.047 152.987 141.575 136.447 137.976 125.293C134.379 114.139 125.879 92.4799 121.511 79.0458C117.144 65.6127 119.53 59.4208 107.735 56.7873C105.854 56.3671 104.024 56.3193 102.274 56.5951C103.441 73.5073 107.338 131.973 106.767 150.715C106.099 172.716 105.467 213.065 105.384 227.058C105.33 236.442 104.533 251.683 104.014 260.708L105.992 260.608C105.992 260.608 106.099 250.777 113.599 243.871Z" fill="#286B59"/>
<path fill-rule="evenodd" clip-rule="evenodd" d="M104.449 74.5898C104.401 73.8314 104.353 73.0903 104.306 72.3588C102.717 71.3725 101.154 70.3567 99.6465 69.2672C97.2185 67.5137 95.0185 65.463 92.6905 63.5744C92.3235 64.0641 91.9685 64.5738 91.6305 65.1059C93.7215 67.1185 96.2145 68.9309 98.4695 70.5759C100.388 71.9749 102.376 73.3348 104.449 74.5898Z" fill="#0C4C3B"/>
<path fill-rule="evenodd" clip-rule="evenodd" d="M105.287 88.0333C102.963 86.8887 100.651 85.7265 98.4035 84.4686C94.5445 82.3086 90.9015 79.9062 87.1745 77.594C87.1305 77.9392 87.0885 78.2862 87.0525 78.6359C92.3385 82.9504 98.7365 86.7692 105.379 89.6108C105.348 89.0823 105.318 88.5574 105.287 88.0333Z" fill="#0C4C3B"/>
<path fill-rule="evenodd" clip-rule="evenodd" d="M106.263 104.805C103.45 103.627 100.724 102.301 98.0945 100.712C93.9075 98.1836 90.0325 95.3298 86.0215 92.615C85.9735 92.9512 85.9345 93.2926 85.8835 93.6253C91.6425 98.637 98.6535 103.741 106.36 106.635C106.328 106.026 106.296 105.415 106.263 104.805Z" fill="#0C4C3B"/>
<path fill-rule="evenodd" clip-rule="evenodd" d="M107.07 120.654C107.046 120.107 107.021 119.558 106.997 119.005C102.588 116.945 98.1845 114.918 94.0565 112.419C90.2215 110.098 86.8585 107.172 83.2175 104.632C83.0345 105.241 82.8475 105.845 82.6545 106.438C85.5905 109.078 89.2585 111.368 92.4575 113.352C96.9795 116.157 101.864 118.803 107.07 120.654Z" fill="#0C4C3B"/>
<path fill-rule="evenodd" clip-rule="evenodd" d="M107.643 135.675C107.63 135.211 107.616 134.743 107.601 134.269C101.598 131.677 95.5935 129.27 89.9865 126.024C85.6495 123.514 81.8165 120.584 77.9565 117.65C77.7375 118.082 77.5185 118.509 77.2975 118.926C80.6955 121.883 84.6115 124.5 88.4665 126.853C94.2555 130.388 100.782 133.775 107.643 135.675Z" fill="#0C4C3B"/>
<path fill-rule="evenodd" clip-rule="evenodd" d="M107.696 152.919C102.292 150.572 96.8875 148.233 91.6795 145.576C85.0305 142.183 78.7395 138.395 72.3725 134.674C72.3215 134.977 72.2715 135.281 72.2245 135.589C82.3975 143.272 94.8765 150.057 107.645 154.702C107.662 154.096 107.678 153.505 107.696 152.919Z" fill="#0C4C3B"/>
<path fill-rule="evenodd" clip-rule="evenodd" d="M107.369 165.964C94.0765 162.71 82.5775 156.203 71.2145 148.693C71.2155 149.075 71.2235 149.452 71.2305 149.831C81.7055 157.016 93.9215 164.765 107.33 167.72C107.342 167.129 107.356 166.547 107.369 165.964Z" fill="#0C4C3B"/>
<path fill-rule="evenodd" clip-rule="evenodd" d="M107.025 182.889C102.155 181.759 97.4275 180.272 92.8645 178.185C86.1025 175.096 79.9695 171.055 74.1895 166.719C74.3985 167.24 74.6205 167.744 74.8535 168.231C83.3915 175.884 94.7975 182.631 106.992 184.744C107.003 184.125 107.014 183.508 107.025 182.889Z" fill="#0C4C3B"/>
<path fill-rule="evenodd" clip-rule="evenodd" d="M106.736 198.872C103.162 198.155 99.6255 197.343 96.1485 196.245C90.6055 194.495 85.6235 192.125 80.5715 189.751C80.5475 190.221 80.5165 190.693 80.4805 191.167C87.6575 195.782 97.3075 199.238 106.704 200.766C106.714 200.139 106.725 199.508 106.736 198.872Z" fill="#0C4C3B"/>
<path fill-rule="evenodd" clip-rule="evenodd" d="M106.498 215.787C106.505 215.201 106.513 214.607 106.521 213.998C102.986 212.938 99.4605 211.859 96.0365 210.572C92.3295 209.179 88.7135 207.612 85.3315 205.746C83.1485 204.541 81.1725 203.108 79.1195 201.767C79.0185 202.357 78.9165 202.941 78.8125 203.519C82.8115 206.915 88.5565 209.442 93.3615 211.376C97.6015 213.083 101.999 214.561 106.498 215.787Z" fill="#0C4C3B"/>
<path fill-rule="evenodd" clip-rule="evenodd" d="M106.331 230.808C106.345 230.125 106.358 229.463 106.368 228.82C102.88 227.985 99.4135 227.09 96.0055 225.994C89.1755 223.796 82.9945 221.089 76.9975 217.79C77.0845 218.536 77.2425 219.304 77.4735 220.09C81.7325 223.273 88.4115 225.234 93.1485 226.893C97.3915 228.379 101.812 229.759 106.331 230.808Z" fill="#0C4C3B"/>
<path fill-rule="evenodd" clip-rule="evenodd" d="M86.7105 234.814C87.2085 235.439 87.7075 236.058 88.2065 236.665C93.8935 239.033 99.8775 241.117 105.919 242.825C105.945 242.192 105.971 241.562 105.997 240.931C99.5835 238.855 93.1455 236.816 86.7105 234.814Z" fill="#0C4C3B"/>
<path fill-rule="evenodd" clip-rule="evenodd" d="M139.279 137.482C143.105 116.554 148.895 50.2636 150.527 31.0809C140.259 31.0717 130.874 41.7283 128.374 56.8525C125.403 74.8348 117.877 88.7876 110.642 98.2135C103.405 107.639 94.4546 140.638 101.969 155.119C109.481 169.597 96.943 193.738 94.7403 205.241C92.5376 216.745 107.997 237.548 111.71 244.552C115.426 251.558 114.857 260.11 114.857 260.11L117.478 260.401C119.584 250.367 123.054 233.41 124.718 222.89C127.203 207.206 134.792 162.047 139.279 137.482Z" fill="#21594A"/>
<path fill-rule="evenodd" clip-rule="evenodd" d="M129.531 242.994C138.653 236.588 163.69 240.083 164.035 192.246C164.38 144.41 177.274 127.566 175.326 114.425C173.38 101.284 167.992 75.4971 165.611 59.6636C163.23 43.8312 166.803 37.3155 154.722 32.2671C152.795 31.4618 150.86 31.0809 148.956 31.0809C147.355 50.2436 141.674 116.465 137.921 137.371C133.517 161.91 126.07 207.022 123.632 222.69C121.999 233.199 118.593 250.138 116.527 260.162L118.643 260.401C118.643 260.401 120.408 249.402 129.531 242.994Z" fill="#286B59"/>
<path fill-rule="evenodd" clip-rule="evenodd" d="M148.308 51.1089C148.383 50.2752 148.455 49.4603 148.527 48.6559C147.035 47.308 145.575 45.9325 144.185 44.4864C141.946 42.1587 139.994 39.5469 137.882 37.0893C137.419 37.559 136.966 38.0524 136.527 38.5733C138.372 41.1248 140.668 43.5279 142.745 45.7077C144.512 47.5616 146.357 49.385 148.308 51.1089Z" fill="#0C4C3B"/>
<path fill-rule="evenodd" clip-rule="evenodd" d="M146.527 66.3142C144.351 64.5858 142.191 62.8394 140.111 60.9954C136.541 57.8292 133.229 54.4251 129.818 51.1089C129.718 51.4953 129.619 51.884 129.527 52.2769C134.199 58.1626 140.08 63.6836 146.367 68.1327C146.42 67.5234 146.474 66.9184 146.527 66.3142Z" fill="#0C4C3B"/>
<path fill-rule="evenodd" clip-rule="evenodd" d="M145.527 85.1238C142.704 83.3319 140 81.3922 137.444 79.179C133.374 75.6563 129.695 71.8297 125.847 68.1327C125.738 68.4952 125.638 68.865 125.527 69.2232C130.863 75.7603 137.53 82.618 145.32 87.1592C145.389 86.4818 145.458 85.8024 145.527 85.1238Z" fill="#0C4C3B"/>
<path fill-rule="evenodd" clip-rule="evenodd" d="M143.325 103.182C143.392 102.569 143.459 101.953 143.527 101.335C139.143 98.2646 134.759 95.2333 130.752 91.7253C127.029 88.4668 123.915 84.6188 120.438 81.1508C120.138 81.7962 119.834 82.435 119.527 83.0611C122.23 86.5148 125.779 89.7097 128.877 92.4806C133.255 96.3985 138.05 100.204 143.325 103.182Z" fill="#0C4C3B"/>
<path fill-rule="evenodd" clip-rule="evenodd" d="M141.332 120.205C141.397 119.692 141.462 119.174 141.527 118.649C135.508 114.746 129.455 111.047 123.974 106.494C119.734 102.972 116.108 99.0753 112.453 95.1704C112.144 95.6078 111.835 96.0403 111.527 96.461C114.68 100.31 118.449 103.876 122.197 107.141C127.825 112.045 134.272 116.915 141.332 120.205Z" fill="#0C4C3B"/>
<path fill-rule="evenodd" clip-rule="evenodd" d="M138.527 140.225C133.145 136.593 127.761 132.97 122.641 129.022C116.105 123.982 110.019 118.558 103.84 113.196C103.734 113.531 103.629 113.866 103.527 114.206C113.105 124.743 125.302 134.676 138.171 142.236C138.291 141.553 138.408 140.885 138.527 140.225Z" fill="#0C4C3B"/>
<path fill-rule="evenodd" clip-rule="evenodd" d="M135.527 154.274C122.211 148.2 111.301 138.764 100.697 128.217C100.636 128.649 100.582 129.078 100.527 129.508C110.258 139.529 121.711 150.499 135.196 156.256C135.306 155.589 135.417 154.932 135.527 154.274Z" fill="#0C4C3B"/>
<path fill-rule="evenodd" clip-rule="evenodd" d="M132.527 173.21C127.569 171.077 122.82 168.569 118.347 165.419C111.717 160.754 105.91 155.134 100.527 149.246C100.66 149.868 100.811 150.473 100.975 151.06C108.72 161.155 119.646 170.746 132.182 175.282C132.297 174.59 132.412 173.901 132.527 173.21Z" fill="#0C4C3B"/>
<path fill-rule="evenodd" clip-rule="evenodd" d="M129.527 191.186C125.933 189.745 122.393 188.203 118.963 186.351C113.494 183.399 108.71 179.85 103.854 176.284C103.751 176.807 103.642 177.333 103.527 177.858C110.221 184.318 119.675 189.919 129.182 193.308C129.296 192.605 129.411 191.899 129.527 191.186Z" fill="#0C4C3B"/>
<path fill-rule="evenodd" clip-rule="evenodd" d="M126.21 210.331C126.314 209.662 126.418 208.982 126.527 208.286C123.036 206.43 119.56 204.554 116.222 202.459C112.608 200.189 109.117 197.738 105.918 194.987C103.853 193.21 102.04 191.21 100.132 189.302C99.9304 189.959 99.7289 190.609 99.5265 191.252C103.114 195.868 108.655 199.805 113.318 202.893C117.432 205.618 121.748 208.11 126.21 210.331Z" fill="#0C4C3B"/>
<path fill-rule="evenodd" clip-rule="evenodd" d="M124.146 227.355C124.279 226.584 124.405 225.835 124.527 225.109C120.884 223.535 117.275 221.897 113.763 220.042C106.727 216.324 100.482 212.145 94.5381 207.327C94.5044 208.189 94.5441 209.087 94.66 210.019C98.7368 214.393 105.65 217.816 110.508 220.548C114.858 222.995 119.421 225.353 124.146 227.355Z" fill="#0C4C3B"/>
<path fill-rule="evenodd" clip-rule="evenodd" d="M102.527 228.357C102.94 229.122 103.356 229.88 103.774 230.626C109.284 234.179 115.149 237.476 121.135 240.373C121.266 239.69 121.396 239.01 121.527 238.329C115.215 234.967 108.872 231.641 102.527 228.357Z" fill="#0C4C3B"/>
<path fill-rule="evenodd" clip-rule="evenodd" d="M147.599 197.368C154.412 182.741 167.154 143.109 172.171 127.216C164.301 124.268 160.922 133.63 156.933 137.34C151.667 142.237 144.639 146.806 139.457 157.934C132.377 173.142 130.156 180.585 129.573 191.41C128.99 202.236 123.67 210.509 120.011 223.764C115.417 240.405 117.278 243.93 119.552 250.439C121.828 256.947 119.269 261.211 119.269 261.211L121.52 261.393C122.834 256.795 124.764 250.615 126.943 245.501C130.966 236.05 138.99 215.848 147.599 197.368Z" fill="#00917A"/>
<path fill-rule="evenodd" clip-rule="evenodd" d="M129.365 253.158C134.238 251.071 143.604 255.613 152.866 248.007C166.271 237 167.86 225.8 170.181 208.662C172.252 193.377 174.792 194.554 179.448 176.623C184.102 158.691 181.259 155.626 179.749 146.535C178.241 137.442 179.969 131.307 173.717 127.924C173.183 127.635 172.669 127.403 172.171 127.216C167.154 143.109 154.412 182.741 147.599 197.368C138.99 215.848 130.966 236.05 126.943 245.501C124.764 250.615 122.834 256.795 121.52 261.393L124.053 261.597C124.053 261.597 124.492 255.246 129.365 253.158Z" fill="#286B59"/>
<path fill-rule="evenodd" clip-rule="evenodd" d="M167.213 129.93C166.443 129.361 165.74 128.718 165.03 128.087C164.759 128.278 164.496 128.485 164.239 128.703C166.149 130.375 168.103 131.907 170.267 133.213C170.386 132.839 170.507 132.465 170.621 132.104C169.454 131.431 168.3 130.736 167.213 129.93Z" fill="#21594A"/>
<path fill-rule="evenodd" clip-rule="evenodd" d="M160.098 133.498C159.766 133.946 159.439 134.389 159.115 134.817C161.424 137.947 163.934 140.85 167.027 143.277C167.165 142.85 167.302 142.43 167.438 142.01C165.685 140.189 163.949 138.344 162.336 136.41C161.575 135.497 160.867 134.466 160.098 133.498Z" fill="#21594A"/>
<path fill-rule="evenodd" clip-rule="evenodd" d="M151.913 141.76C155.451 146.147 159.303 150.457 163.365 154.417C163.588 153.743 163.813 153.071 164.033 152.405C160.585 148.358 156.818 144.472 152.956 140.843C152.612 141.144 152.264 141.45 151.913 141.76Z" fill="#21594A"/>
<path fill-rule="evenodd" clip-rule="evenodd" d="M145.291 148.539C149.98 154.18 154.523 160.084 159.673 165.361C159.875 164.775 160.074 164.187 160.274 163.6C155.557 158.295 150.438 153.294 145.736 147.99C145.588 148.168 145.439 148.356 145.291 148.539Z" fill="#21594A"/>
<path fill-rule="evenodd" clip-rule="evenodd" d="M139.645 157.554C144.758 163.754 150.425 169.711 156.151 175.458C156.332 174.951 156.513 174.437 156.695 173.925C151.565 167.821 146.02 161.873 140.093 156.646C139.943 156.946 139.793 157.244 139.645 157.554Z" fill="#21594A"/>
<path fill-rule="evenodd" clip-rule="evenodd" d="M135.522 166.802C135.41 167.073 135.301 167.34 135.192 167.605C138.905 174.566 145.509 180.993 152.352 185.809C152.534 185.336 152.714 184.862 152.896 184.377C150.545 182.415 148.231 180.413 146.026 178.294C142.265 174.679 139.195 170.468 135.522 166.802Z" fill="#21594A"/>
<path fill-rule="evenodd" clip-rule="evenodd" d="M131.131 179.898C131.065 180.177 131.004 180.454 130.943 180.732C136.821 185.692 142.237 191.219 148.148 196.16C148.386 195.63 148.628 195.078 148.876 194.498C146.112 192.101 143.234 189.811 140.453 187.469C137.398 184.897 134.383 182.236 131.131 179.898Z" fill="#21594A"/>
<path fill-rule="evenodd" clip-rule="evenodd" d="M129.474 192.638C134.089 197.03 138.91 201.354 144.077 205.087C144.258 204.681 144.441 204.275 144.624 203.868C139.698 199.683 134.548 195.72 129.558 191.597C129.536 191.948 129.504 192.292 129.474 192.638Z" fill="#21594A"/>
<path fill-rule="evenodd" clip-rule="evenodd" d="M127.258 202.903C131.143 207.081 135.313 211.108 139.934 214.514C140.142 214.033 140.35 213.551 140.56 213.067C136.1 209.548 131.657 206.029 127.494 202.141C127.414 202.395 127.34 202.65 127.258 202.903Z" fill="#21594A"/>
<path fill-rule="evenodd" clip-rule="evenodd" d="M124.15 211.461C127.639 215.734 131.899 219.749 136.351 222.918C136.536 222.481 136.721 222.044 136.907 221.603C132.822 217.785 128.73 213.97 124.644 210.151C124.479 210.584 124.315 211.021 124.15 211.461Z" fill="#21594A"/>
<path fill-rule="evenodd" clip-rule="evenodd" d="M121.455 218.991C121.384 219.21 121.315 219.439 121.243 219.661C125.225 223.688 128.439 228.107 132.657 231.761C132.826 231.353 132.997 230.943 133.17 230.525C131.653 229.227 130.16 227.906 128.739 226.503C126.25 224.043 124.121 221.262 121.455 218.991Z" fill="#21594A"/>
<path fill-rule="evenodd" clip-rule="evenodd" d="M118.923 227.954C118.842 228.284 118.769 228.605 118.695 228.923C121.464 232.782 125.528 236.495 129.742 238.8C129.928 238.353 130.119 237.893 130.312 237.425C128.419 236.088 126.469 234.839 124.681 233.344C122.654 231.652 120.83 229.766 118.923 227.954Z" fill="#21594A"/>
<path fill-rule="evenodd" clip-rule="evenodd" d="M117.267 237.552C120.035 240.808 123.115 243.946 126.479 246.632C126.633 246.254 126.785 245.87 126.943 245.501C126.993 245.381 127.046 245.254 127.099 245.131C123.803 242.276 120.517 239.442 117.371 236.407C117.329 236.8 117.294 237.183 117.267 237.552Z" fill="#21594A"/>
<path fill-rule="evenodd" clip-rule="evenodd" d="M176.213 223.757C187.251 215.671 213.092 191.372 223.388 181.588C219.045 176.093 212.679 181.679 208.273 182.784C202.457 184.242 195.528 184.719 187.133 190.871C175.66 199.279 170.93 203.914 165.93 211.763C160.93 219.613 153.646 223.573 145.431 231.952C135.118 242.472 134.947 245.885 133.805 251.702C132.665 257.52 129.041 259.637 129.041 259.637L130.563 260.715C133.445 257.827 137.434 254.014 141.148 251.102C148.01 245.719 162.269 233.972 176.213 223.757Z" fill="#00917A"/>
<path fill-rule="evenodd" clip-rule="evenodd" d="M138.817 257.995C143.214 258.486 148.017 265.849 157.925 264.052C172.265 261.453 178.185 253.719 187.163 241.84C195.172 231.244 196.497 233.2 207.494 221.711C218.49 210.221 217.751 206.72 220.542 199.261C223.334 191.801 227.194 187.927 224.139 182.749C223.877 182.307 223.606 181.915 223.328 181.565C212.94 191.373 186.87 215.731 175.73 223.83C161.654 234.062 147.265 245.833 140.34 251.226C136.592 254.144 132.567 257.966 129.66 260.862L131.396 262.084C131.396 262.084 134.421 257.504 138.817 257.995Z" fill="#286B59"/>
<path fill-rule="evenodd" clip-rule="evenodd" d="M218.422 181.739C218.077 180.992 217.815 180.221 217.542 179.456C217.255 179.477 216.966 179.513 216.676 179.56C217.421 181.601 218.259 183.559 219.353 185.444C219.603 185.225 219.854 185.005 220.095 184.793C219.492 183.799 218.908 182.795 218.422 181.739Z" fill="#21594A"/>
<path fill-rule="evenodd" clip-rule="evenodd" d="M211.715 181.595C211.278 181.776 210.846 181.954 210.424 182.123C210.839 185.358 211.5 188.516 212.798 191.581C213.081 191.333 213.36 191.089 213.638 190.846C213.09 188.788 212.564 186.721 212.169 184.643C211.982 183.662 211.885 182.62 211.715 181.595Z" fill="#21594A"/>
<path fill-rule="evenodd" clip-rule="evenodd" d="M202.245 184.13C202.828 188.848 203.658 193.636 204.777 198.248C205.211 197.837 205.645 197.427 206.074 197.019C205.41 192.591 204.462 188.154 203.34 183.871C202.98 183.955 202.614 184.041 202.245 184.13Z" fill="#21594A"/>
<path fill-rule="evenodd" clip-rule="evenodd" d="M194.97 186.578C195.89 192.823 196.593 199.205 197.996 205.368C198.39 205.009 198.783 204.647 199.176 204.286C198.092 198.284 196.594 192.344 195.521 186.349C195.339 186.422 195.154 186.502 194.97 186.578Z" fill="#21594A"/>
<path fill-rule="evenodd" clip-rule="evenodd" d="M187.169 190.474C187.971 197.41 189.252 204.385 190.663 211.22C191.002 210.899 191.345 210.573 191.688 210.249C190.833 203.382 189.631 196.464 187.862 189.952C187.631 190.123 187.402 190.294 187.169 190.474Z" fill="#21594A"/>
<path fill-rule="evenodd" clip-rule="evenodd" d="M180.344 195.737C180.147 195.897 179.955 196.055 179.763 196.211C179.413 203.1 181.351 210.802 184.153 217.373C184.486 217.088 184.818 216.802 185.156 216.507C184.326 214.016 183.539 211.507 182.881 208.957C181.757 204.605 181.382 200.09 180.344 195.737Z" fill="#21594A"/>
<path fill-rule="evenodd" clip-rule="evenodd" d="M171.766 204.333C171.607 204.511 171.451 204.69 171.295 204.869C173.231 210.883 174.619 217.127 176.584 223.14C176.963 222.846 177.355 222.537 177.762 222.212C176.878 219.336 175.874 216.494 174.956 213.652C173.948 210.531 173.004 207.361 171.766 204.333Z" fill="#21594A"/>
<path fill-rule="evenodd" clip-rule="evenodd" d="M165.319 212.527C166.506 217.799 167.859 223.102 169.691 228.087C169.982 227.846 170.275 227.604 170.569 227.364C169.088 222.126 167.365 216.97 165.816 211.755C165.653 212.018 165.486 212.272 165.319 212.527Z" fill="#21594A"/>
<path fill-rule="evenodd" clip-rule="evenodd" d="M158.585 219.343C159.786 224.05 161.27 228.771 163.362 233.24C163.725 232.982 164.091 232.724 164.458 232.466C162.536 227.986 160.628 223.512 159.091 218.895C158.921 219.044 158.756 219.196 158.585 219.343Z" fill="#21594A"/>
<path fill-rule="evenodd" clip-rule="evenodd" d="M153.551 224.411C154.194 229.213 155.504 234.142 157.321 238.497C157.644 238.238 157.966 237.978 158.293 237.715C157.022 233.013 155.746 228.311 154.475 223.607C154.169 223.872 153.861 224.141 153.551 224.411Z" fill="#21594A"/>
<path fill-rule="evenodd" clip-rule="evenodd" d="M148.012 228.71C147.867 228.851 147.72 229.001 147.574 229.145C148.604 233.964 148.929 238.766 150.287 243.393C150.582 243.145 150.879 242.896 151.181 242.643C150.686 240.992 150.217 239.333 149.835 237.64C149.165 234.671 148.886 231.605 148.012 228.71Z" fill="#21594A"/>
<path fill-rule="evenodd" clip-rule="evenodd" d="M142.505 235.228C142.317 235.424 142.138 235.616 141.96 235.806C142.346 239.579 143.692 243.77 145.703 247.051C146.011 246.817 146.327 246.576 146.648 246.33C145.865 244.649 145.007 243.005 144.359 241.257C143.625 239.276 143.109 237.243 142.505 235.228Z" fill="#21594A"/>
<path fill-rule="evenodd" clip-rule="evenodd" d="M136.67 241.576C137.287 245.174 138.179 248.815 139.469 252.238C139.741 252.022 140.014 251.799 140.285 251.591C140.372 251.523 140.465 251.451 140.556 251.381C139.386 247.86 138.216 244.359 137.232 240.767C137.035 241.042 136.847 241.313 136.67 241.576Z" fill="#21594A"/>
<path d="M99.1533 299.781C101.362 299.781 103.153 297.988 103.153 295.776C103.153 293.563 101.362 291.77 99.1533 291.77C96.9442 291.77 95.1533 293.563 95.1533 295.776C95.1533 297.988 96.9442 299.781 99.1533 299.781Z" fill="#333333"/>
<path d="M125.153 299.781C127.362 299.781 129.153 297.988 129.153 295.776C129.153 293.563 127.362 291.77 125.153 291.77C122.944 291.77 121.153 293.563 121.153 295.776C121.153 297.988 122.944 299.781 125.153 299.781Z" fill="#333333"/>
<path d="M127.653 308.292C128.691 308.292 129.655 308.053 130.376 307.64C131.084 307.235 131.653 306.599 131.653 305.79C131.653 304.98 131.084 304.345 130.376 303.94C129.655 303.526 128.691 303.287 127.653 303.287C126.616 303.287 125.652 303.526 124.93 303.94C124.222 304.345 123.653 304.98 123.653 305.79C123.653 306.599 124.222 307.235 124.93 307.64C125.652 308.053 126.616 308.292 127.653 308.292Z" fill="#FE9281" stroke="#FE9281"/>
<path d="M95.6533 308.292C96.6908 308.292 97.6547 308.053 98.3765 307.64C99.0843 307.235 99.6533 306.599 99.6533 305.79C99.6533 304.98 99.0843 304.345 98.3765 303.94C97.6547 303.526 96.6908 303.287 95.6533 303.287C94.6158 303.287 93.6519 303.526 92.9301 303.94C92.2223 304.345 91.6533 304.98 91.6533 305.79C91.6533 306.599 92.2223 307.235 92.9301 307.64C93.6519 308.053 94.6158 308.292 95.6533 308.292Z" fill="#FE9281" stroke="#FE9281"/>
<path d="M97.1533 296.276C97.9824 296.276 98.6533 295.603 98.6533 294.774C98.6533 293.946 97.9824 293.273 97.1533 293.273C96.3242 293.273 95.6533 293.946 95.6533 294.774C95.6533 295.603 96.3242 296.276 97.1533 296.276Z" fill="white" stroke="white"/>
<path d="M123.153 296.276C123.982 296.276 124.653 295.603 124.653 294.774C124.653 293.946 123.982 293.273 123.153 293.273C122.324 293.273 121.653 293.946 121.653 294.774C121.653 295.603 122.324 296.276 123.153 296.276Z" fill="white" stroke="white"/>
<path fill-rule="evenodd" clip-rule="evenodd" d="M90.0679 282.622C89.0715 283.337 88.5489 284.239 88.4984 285.326C87.108 282.689 83.4864 281.784 85.4821 285.979C81.4613 283.544 83.0091 289.639 86.8308 289.618C92.7515 289.586 92.5593 281.698 90.0679 282.622Z" fill="#FCA395"/>
<path fill-rule="evenodd" clip-rule="evenodd" d="M94.2215 286.108C93.2201 286.981 92.3568 288.15 91.6519 289.166C91.2949 289.68 90.9962 290.19 90.7093 290.703C90.2254 289.681 89.5666 288.714 88.4921 288.404C88.2764 288.342 87.9801 288.535 87.9394 288.729C87.7661 289.548 88.1723 290.255 88.4889 290.935C88.8893 291.797 89.2712 292.659 89.5936 293.555C89.8158 294.174 91.1559 294.004 91.47 293.291C91.9745 292.144 92.5261 290.992 93.1028 289.856C93.6756 288.727 94.4468 287.616 94.982 286.491C95.1638 286.109 94.6484 285.736 94.2215 286.108Z" fill="#094235"/>
<path d="M103.153 308.294C102.987 308.294 102.831 308.377 102.738 308.515C102.646 308.653 102.627 308.828 102.69 308.982C105.158 315.048 108.505 318.306 112.82 318.306C114.963 318.306 116.79 317.495 118.271 315.893C119.737 314.307 120.849 311.965 121.637 308.919C121.676 308.769 121.643 308.61 121.549 308.488C121.454 308.365 121.308 308.294 121.153 308.294H103.153Z" fill="#F47979" stroke="#F47979" stroke-linejoin="round"/>
</svg>
